/* XPM */
static char *avx6g_kcrtn[] = {
/* columns rows colors chars-per-pixel */
"50 50 188 2 ",
"   c #00060E",
".  c #000710",
"X  c #020B13",
"o  c #090E15",
"O  c #010F19",
"+  c #090F18",
"@  c #031017",
"#  c #0C1017",
"$  c #04111A",
"%  c #0C131B",
"&  c #0F181F",
"*  c #111117",
"=  c #13141B",
"-  c #1A161B",
";  c #15181E",
":  c #1B191E",
">  c #231A1E",
",  c #2A1C1F",
"<  c #051722",
"1  c #0F1721",
"2  c #021925",
"3  c #0B1922",
"4  c #101721",
"5  c #151A22",
"6  c #1C1D23",
"7  c #1D1F29",
"8  c #231E23",
"9  c #291F22",
"0  c #0C212E",
"q  c #172027",
"w  c #1C2126",
"e  c #14222B",
"r  c #1D2229",
"t  c #1C282F",
"y  c #162731",
"u  c #1D2730",
"i  c #1C2C37",
"p  c #242126",
"a  c #2B2226",
"s  c #24232A",
"d  c #2B252B",
"f  c #24282D",
"g  c #2D282D",
"h  c #322326",
"j  c #33262A",
"k  c #3A272A",
"l  c #34292D",
"z  c #3B2A2D",
"x  c #2A2730",
"c  c #242B33",
"v  c #2B2A31",
"b  c #342C32",
"n  c #3B2E32",
"m  c #253037",
"M  c #2B3035",
"N  c #26323A",
"B  c #2A333A",
"V  c #343237",
"C  c #3C3136",
"Z  c #34363D",
"A  c #3D3339",
"S  c #422C2E",
"D  c #4B2E2E",
"F  c #46312F",
"G  c #50312F",
"H  c #432E31",
"J  c #492F30",
"K  c #443234",
"L  c #4C3334",
"P  c #4B3A37",
"I  c #443539",
"U  c #4B3639",
"Y  c #453A3D",
"T  c #4D3A3B",
"R  c #533534",
"E  c #5A3633",
"W  c #553836",
"Q  c #5B3936",
"!  c #503738",
"~  c #543B3B",
"^  c #5B3C3A",
"/  c #603734",
"(  c #633B36",
")  c #6B3C36",
"_  c #633E3A",
"`  c #6A3E38",
"'  c #723E37",
"]  c #713F38",
"[  c #54413F",
"{  c #5D403E",
"}  c #64423D",
"|  c #6C433D",
" . c #73443D",
".. c #7C463C",
"X. c #75483C",
"o. c #7B4A3F",
"O. c #2B3540",
"+. c #323B43",
"@. c #3E3B42",
"#. c #4B3D40",
"$. c #543F41",
"%. c #593F41",
"&. c #4C4246",
"*. c #484449",
"=. c #544243",
"-. c #5C4343",
";. c #5D4946",
":. c #544648",
">. c #584448",
",. c #5C494A",
"<. c #524A50",
"1. c #634442",
"2. c #6B4641",
"3. c #644946",
"4. c #6C4945",
"5. c #654B4A",
"6. c #6B4C4B",
"7. c #734740",
"8. c #734B44",
"9. c #7A4C43",
"0. c #724E49",
"q. c #61504F",
"w. c #6B504D",
"e. c #7E5146",
"r. c #74514D",
"t. c #7B534B",
"y. c #6A4F51",
"u. c #625250",
"i. c #6B5553",
"p. c #6D595A",
"a. c #735553",
"s. c #795652",
"d. c #765A56",
"f. c #7D5A54",
"g. c #7D5E5A",
"h. c #745E5B",
"j. c #78635F",
"k. c #7E6B68",
"l. c #81473D",
"z. c #83493E",
"x. c #834E43",
"c. c #825146",
"v. c #895246",
"b. c #82554B",
"n. c #8B554A",
"m. c #86594F",
"M. c #875C4F",
"N. c #83594F",
"B. c #8C594D",
"V. c #915547",
"C. c #925748",
"Z. c #915A4B",
"A. c #825750",
"S. c #855A50",
"D. c #835E53",
"F. c #835B53",
"G. c #8A5F54",
"H. c #8B5E53",
"J. c #825E58",
"K. c #935E50",
"L. c #836057",
"P. c #866057",
"I. c #8D6257",
"U. c #8D6254",
"Y. c #866158",
"T. c #85635C",
"R. c #896058",
"E. c #8C6359",
"W. c #8D695D",
"Q. c #926255",
"!. c #956759",
"~. c #926559",
"^. c #95695D",
"/. c #9B6C5D",
"(. c #856661",
"). c #816E65",
"_. c #8D6A62",
"`. c #946F65",
"'. c #936E67",
"]. c #987369",
"[. c #987069",
"{. c #9F7F71",
"}. c #A27163",
"|. c #A2766A",
" X c #A37A6E",
".X c #AC7463",
"XX c #A17D73",
"oX c #AE877A",
/* pixels */
"X O $ % % $ $ $ X X O O X O 2 < O O O O O X + # X X $ s v f 7 4 w p 5 5 w 5 w c B B B M m c e t e $ ",
"i &.K P C ;.>.Y [ 5.:.:.k.j.a.>.&.:.#.T f b C K = 2 ).^.r.4.4.L.T.0.0.W.T.D.f.g.`.[._.d.Y ;.h.a.I 0 ",
"B I S h p | R n P I T g.(.4. .^ ~ l U U n 8 d d + e XXf.~ 8.` 9.b.m.G.U.9.b.2.4.t.H.m.( F =.g.1.h $ ",
"5 3.z n W W n b b g g P a k D k z a k l d g l a % q J.t.6.4.e.8.M./.^.U.7.2.}  .4.8.] ] E l J R j X ",
"6 R.W L L Q U b } -.n g j K Q L L L j d 7 p k z X w t.W } 2.b.8.t.!.!.| E Q W ~ ^ ^ E / j K R S p + ",
"$ U j 8 J  .b.9.Z.c.| _  ..._ | Q k j 8 7 a a p X w 2.R L 2.m.S.e.W ^.7.| Q } ~ Q L k k p d p l l + ",
"X p n L ^ 2.1._ v.V.v.x.( ] ] x.9.7...W p p 5 p   f ^ k ^ 0.S.m.9.4.^.t.7.^ U K R ^ n k Q p 7 g g X ",
"X j H L ~ Q ^ | o.x.C.v.`  .l.z.n.9.] W K n 5 =   v 1.J W -.8.) | e.m.e.K K U p d z p 8 ~ z g b s # ",
"+ j a d K _ 7.| _ x.z.B.n...z.' 9.9.E 8 z 5 = %   c 4.D R ^ } ` 7.7.e.2.L z k z H K S z L j d n j = ",
"X X % % = : a : a 9 > k h , > - * = X     . X   O y 4 X + > - - = # : = - = # = = * + o + .   X X   ",
"+ + X + $ $ $ $ O O O X O X X # 6 : a d b s w m N O.+.M g w 6 p p a p d 6 = O O ; = = = 5 8 l l d g ",
"8 j j z g V A A A C C Y A 5 4 G.3.L 7.7.0.P -.T.'.'. X}.H.H.!.H.e.n.9.m.r.-.7 Z F.W T C I I 3.1.~ 5.",
"9 a a 7 1 & 5 p d p b I K 6 + _.$.L E / E l Y 6.1.t.N.K.Q.9.7.x. ._ |  .^ ~ j w r.~ n b b g d S K w.",
"a 8 5 5 4 = O : 9 p d b f 5 X g.$.W R 7.( n 0.r.A.~.~.n.9.4.~ ^ } Q _ Q p L z X ~ U l n b I I H W J.",
"a d 7 a 4 ; a 6 X & = 5 7 7 X g.U P 1.5.U n i.R.S.8.r.{ L R ~ } ( J E E ^ 4.6 = d 7 I I C b b P 4.0.",
"8 D k 8 4 j z $ X % & % 7 5 + $.I 1.s.f.= C oX^.t.1.Q ~ P ^ 9.N.U K Q E  .Q.9 = g 4 f g n b I -.^ 2.",
"h z k 8 a a a 5 3 % 1 5 5 8 + >.~ ^ 1.;.d (.[.f.-.^ ( N.| Q R $.K R R R 9.H.z = l v b n l b I K ~ 0.",
"h h d a j = j k $ 4 x b A d + =.4.2.| 4.a.6.f.^.H. . .9.7.| Q U z L J L  .9.a = n p U J k S z n I P ",
"j j j j z j S k $ 5 5 p n a X $.d z 4.3.0.7.t.b.B.|  .9. . .e.2.K U R R | { % 6 T 5 n l a h h k K ^ ",
": = = > 9 > : = X X X X X X X 8 X . # X X = = = = # = : = ; : - # X X X X .   O % X X X X X X   . X ",
"X X O X X X X $ = = 5 e e e 4 $ $ $ < 3 % O $ $ O O O O 4 5 6 & f b g C I P ~ P U I P ~ T =.T [ Y 5 ",
"O 5 & $ 5 g K S b K U U ~ 1.I Z <.p.:.Y { x b b f 3 e #.f.6.m.r.T.E.9.B.b.9.c.n.| W 2.7.t.H.b.} =.n ",
"X 1 j l 5 z S k z -.-.E S H 5.g.a.5.d 5 6 5 b 8 5 O i.|.E.6.-.P d l k n K Q U U b K z } 8.8.r.~ g 8 ",
"X l ^ R S } ^ L 1.J.f.Q L ~ W U L ~ n b p 7 s p 5 X 3.J.f.s.;.~ $.I I C n l I b b n ~ 1.2.4.F.4.C p ",
"X ! 8.W W t.t.| } r.J.f.~ 0.H L Q 4.a.;.A b p l 5 X d ~ J.3.0.3.~ 1.^ ! U U ~ ^ ~ ^ ^ } b.2.4.2.p 5 ",
"X W 9.| ~ | _ E | N.T.d.a.g.6.| ` e.A.I C x d p % X C A -.4.^ R ^ U L P 2.9.2.| _ ~ W 8.e.| | l d d ",
". Q  .( _ _ L D 8.^.^.J.4.T. XA._ 8._ d g b b 5 X X =.b K W R R L W Q | | 2.2. .^ ~ 9.2.^ 9.^ ~ C d ",
"  Q X._ E E R Q 9.U.| / E _ G.W./ 8.} H a 7 a d X X Y C K R R L L Q | | L  . . .~ l K R _ R R n I p ",
". S E G Q ` | H.U.Q.| _ _ _  .| ) ` } E J z d 6 + X b ~ U Q L H S S ^ } k R Q W S d d k L a F l L p ",
"X : * = > > - 9 a 9 > > - = = = > > - = - # X X   X < X X X X X X X X X X X . X + o X X     .       ",
": 5 ; = % % = + + + + + O % + O & $ - : $ + 5 6 p w c c 7 : ; 6 6 5 p $ w 5 6 5 O $ 5 5 l C b C C K ",
"E E D z S d d p p p p f x f 7 $ C b l n b f #.b d v C b s b U } { #.r.5.,.6.3.l O &.$.-.5.T b b R _ ",
"D z k a h a p 7 p b p I s & 5 o n d n p p K I b p d n a 7 g z H K I 6.w.5.s.w.j X a.Q D S h 7 l H n ",
"a l a z R l p l g z S ! = 7 5 X l U T n z R 1.n L K K l l R L W R L K -.f.J.s.L & f.D z R 8 p a p l ",
"W ( k k R _ L L k d a 7 w v 7 X d l ~ } l R 4.W b U U L L Q 7.} ^ z d 0.t.f.~ F & r.K n H p z R K g ",
"9.} W W ^ e.9.Q z z 7 w p I a X 7 4 p z S R L J L 1.W U ^ 8.2.L L d K ^ ~.r.^ z 5 4.R E E R ` ) _ } ",
"9.}  .| W W S j S j p 5 7 l 6 X d C b 7 z E k S k L ^ H K L l k z K n R t.{ W l : ~ S R z z J L ~ t.",
"| 7.X.) E k 5 a E D k p a a 5 X C n j l 7 a L R L K Q R z d C 2.| } Q Q K H K a - Q j D l d j n n ~ ",
"^ }  .( k S z S k h S S l 8 6   a d a z 6 8 l a z S z z l z z l K } Q R L r.4.p : | 8 k G d p a K H ",
"X X = + X + + X X X X + X X     % : # X + = X X + * + X X + X X X X X + + = = X X ; X X X   X X X + ",
"t V g r w 5 w d d s d p 5 7 s p c u $ ; 5 % O $ < 3 w 5 = 5 7 7 7 w 7 w : 6 w g s e w & r s 6 $ $ $ ",
"{..Xo.4.T =.=.2.x.7.H.~.0.4.} 7.6.r.=.=.} 6.:.V 2 *.6.g b T I I U 2.r.6.n _ | 1.2.>.-.4.f.4.3.I 3 0 ",
"I ^ z z a z 7 s k k k / ^ W L 2.2.r.6.W Q ^ 8.H X @.H 7 b g 7 p H Q K L H R R L L H } 7.R D L k X < ",
"u.q.; 7 b g g g j D k k j f b U K $.-.4.R } ~ z X x C p p 5 w f l H U ! H K D L L K Q 2.W W ~ k + X ",
"T L.T.:.n j z k J Q j p p p v b v d A U $.t.R L   p 7 O & s f b g n U C g v z L L R -.L H } 0.f.l X ",
";.f.4.w.$.U K H L S z z n K l b C n C C s.t.^ H   b A #.;.T I I d z C b w j z K R W r.4.U -.t.A.k . ",
"4.r.^ K L U I U ^ S S k U n j J l j n 4.r.0.R K   n y.U a x n n d p g g j z d L R R 1.7.4.f.R.t.l X ",
"5.6.{ L L g n I L D J D S J J k p j ~ -.^ Q K n   b b a d p j z n l j z S l S L L ^ } | 6.4.8.} { X ",
"i.^ S L L U U L k G E L E R R R U K n ~ _ ^ n =   Y a.3.K b b H K D L L L L } ~ Q 8.7.4.F.r.^ ~ H X ",
"5 % + = = = : : = - - 9 : - : - > 6 : 8 a a = X X w C C d a : = % - = = 8 d d p p a a 9 l a = - = X "
};
