/* XPM */
static char *aee8e_5jhfr[] = {
/* columns rows colors chars-per-pixel */
"50 50 232 2 ",
"   c #00050E",
".  c #00080F",
"X  c #030B13",
"o  c #0A0F16",
"O  c #050F18",
"+  c #051016",
"@  c #0C1117",
"#  c #05111A",
"$  c #0C131B",
"%  c #13151B",
"&  c #1A161B",
"*  c #15181E",
"=  c #1C191E",
"-  c #131416",
";  c #23161B",
":  c #221B1D",
">  c #291F1E",
",  c #28171C",
"<  c #321E1F",
"1  c #1C2116",
"2  c #282619",
"3  c #34211F",
"4  c #041622",
"5  c #051925",
"6  c #0C1A23",
"7  c #0E1E28",
"8  c #0C1720",
"9  c #151A22",
"0  c #1B1C23",
"q  c #1C1F28",
"w  c #101720",
"e  c #221E23",
"r  c #291F23",
"t  c #0E202C",
"y  c #1D212A",
"u  c #172125",
"i  c #1C2935",
"p  c #192835",
"a  c #242125",
"s  c #2B2225",
"d  c #24222A",
"f  c #2C252B",
"g  c #29292C",
"h  c #322326",
"j  c #32262A",
"k  c #34292D",
"l  c #3B2B2D",
"z  c #3A2725",
"x  c #212A33",
"c  c #292B35",
"v  c #342C32",
"b  c #3B2D32",
"n  c #27313C",
"m  c #3C3135",
"M  c #3B3339",
"N  c #393637",
"B  c #31322F",
"V  c #432D2C",
"C  c #482C27",
"Z  c #44312C",
"A  c #4B332E",
"S  c #53322E",
"D  c #5B342F",
"F  c #5A3225",
"G  c #422F31",
"H  c #443235",
"J  c #4B3334",
"K  c #43353A",
"L  c #4C3639",
"P  c #44383A",
"I  c #4B393C",
"U  c #473C35",
"Y  c #533634",
"T  c #5A3532",
"R  c #553936",
"E  c #5C3A35",
"W  c #533B3C",
"Q  c #5B3D3B",
"!  c #523739",
"~  c #562C22",
"^  c #633B35",
"/  c #6B3E35",
"(  c #643E3A",
")  c #673C37",
"_  c #6F3B29",
"`  c #5F413E",
"'  c #574537",
"]  c #4C432C",
"[  c #64423D",
"{  c #6C443C",
"}  c #6C483A",
"|  c #72443B",
" . c #7B463C",
".. c #75493D",
"X. c #7B493B",
"o. c #744336",
"O. c #6E4F34",
"+. c #4C3C41",
"@. c #453F43",
"#. c #523E41",
"$. c #5A3F41",
"%. c #3C4149",
"&. c #4C4445",
"*. c #534244",
"=. c #5C4344",
"-. c #5E4749",
";. c #5B494B",
":. c #52464A",
">. c #5E524B",
",. c #4F4B53",
"<. c #634543",
"1. c #6A4641",
"2. c #654945",
"3. c #6C4944",
"4. c #644B4B",
"5. c #6B4D4B",
"6. c #744C44",
"7. c #7B4D42",
"8. c #724E4A",
"9. c #784D46",
"0. c #7C5246",
"q. c #74514C",
"w. c #7C534B",
"e. c #665355",
"r. c #755552",
"t. c #7D5D59",
"y. c #7B5954",
"u. c #5C5860",
"i. c #635D64",
"p. c #6B636A",
"a. c #696167",
"s. c #7B6261",
"d. c #7A7078",
"f. c #9B5627",
"g. c #824B3C",
"h. c #8A4E3D",
"j. c #89523C",
"k. c #96593A",
"l. c #8C4626",
"z. c #A45A2E",
"x. c #95603E",
"c. c #BA7231",
"v. c #B56A31",
"b. c #C57C3B",
"n. c #834E42",
"m. c #835343",
"M. c #8C5444",
"N. c #845649",
"B. c #845A4B",
"V. c #8B5B4C",
"C. c #8A5748",
"Z. c #945943",
"A. c #9A5C43",
"S. c #935E4C",
"D. c #915643",
"F. c #835A51",
"G. c #885D53",
"H. c #915E51",
"J. c #8B604B",
"K. c #9B624A",
"L. c #97664B",
"P. c #8C6254",
"I. c #85625B",
"U. c #946553",
"Y. c #9A6A56",
"T. c #976A5A",
"R. c #99715D",
"E. c #A4694C",
"W. c #A66848",
"Q. c #AC714D",
"!. c #B4734B",
"~. c #B97B4D",
"^. c #A56C53",
"/. c #AD7253",
"(. c #A2725D",
"). c #A97557",
"_. c #B77956",
"`. c #B16D43",
"'. c #977166",
"]. c #927068",
"[. c #A87A66",
"{. c #B67E63",
"}. c #C27E48",
"|. c #CE8235",
" X c #BA825A",
".X c #A18648",
"XX c #BC8666",
"oX c #AD8B67",
"OX c #B5A470",
"+X c #C88658",
"@X c #D6975A",
"#X c #CC8D4D",
"$X c #DDB65F",
"%X c #EAAA56",
"&X c #C48A63",
"*X c #C58C68",
"=X c #C89366",
"-X c #D59866",
";X c #C79B72",
":X c #C4A576",
">X c #DCA975",
",X c #CCA76A",
"<X c #E7AB67",
"1X c #F9BD6D",
"2X c #E7B77A",
"3X c #E6AE75",
"4X c #E8C378",
"5X c #F4C57B",
"6X c #948A8C",
"7X c #9C9495",
"8X c #9E9699",
"9X c #A39A9B",
"0X c #A59A9A",
"qX c #A99FA0",
"wX c #AAA1A2",
"eX c #B6A399",
"rX c #D5B083",
"tX c #E6BD84",
"yX c #DBC08C",
"uX c #EFCB88",
"iX c #F2CC8C",
"pX c #F6C986",
"aX c #F3CD91",
"sX c #F7D699",
"dX c #EDD393",
"fX c #FFE59A",
"gX c #FADBA2",
"hX c #F9D8A2",
"jX c #EBD3A9",
"kX c #FFE4A4",
"lX c #FAE2AD",
"zX c #F9E6B8",
/* pixels */
"9 0 & = a e e 0 a A V A m *.>.>.' U s U B % X ] fXO.$ a s a e a 2 * $ $ # 6 t 6 6 # + % * * = s @ $ ",
"-.4.Y 3.6...7.7.N.Z.A._.-X+X>X2X1X5X2X5XuX:X:XoXyX:X:XrXjXdX;X=X;XJ.[.oXR.F.U.0.2.2.H W 6.` b 8.e y ",
"f H ^ T D T Y T ^ o.g.j.E.!.+X@X<X5X@XiXsXkXkXpXhXgXiXaXiXaXiX3X>X=X&XXX+XE.K.h.S Y Z f J R k L - * ",
"y J 3.{ ) T V V E { | g.h.W.+X-X<X2X,XlXaX4XaXuX4XlXkXzXgX4X-X>X2X-X X^.L.J.m.m.Q l E H f L <.t.= 0 ",
"q v 3.[ ( b l R 6.{ X.M.D.Z.X.j.W.~.-XpX5X>XhXaX4XgXgXsXlXlXtX>X:XL.L.P.V.6.6.3.G l l 7.W #.4.4.0 9 ",
"f v W ( b L Q J R R | g.X.[ E | D.W.+X#X@X5XkXiX$XkXsXaXhXsX3X=XE.S 0.} 0.E H b k Y l W 1.F.5.<.e * ",
"k b W [ ! H W L { 7.6.Y V b Q ....g.k.W.-X2XtX,X.X2X5XhX-X=X X=X*X} E L j b f v b J k f b Q J f = $ ",
"d K v =.#.$.Q W <.L f b k L V J V V X.^.eXwXa.x 5 % a O. XE.XX).).K.C.8.2.` J v f a e j <.2.K q % % ",
"a 9 q v H K a 0 q 9 v d s a 0 f f J z =.8X0Xp.n 7 # X   Z U.Y.V.B.U.U.T.G.1.8.9.L J 2.G.[ q.3.Q $ % ",
"X       X     . X X . . X X X X o X   N 0XqXp.n 7 # + X $ s s j l k h s k e j j = h V k X * a % X X ",
"b j q d d l f e q q # # 8 $ 9 0 * q % N 9XwXp.n 7 # X X X   X X X X X X X $ $ 9 6 8 $ $ $ $ # # $ 7 ",
"L b J H f H j G k d q t 4.-.W $.W =.W ;.9XwXp.n 7 # X X X @ q +.e.e.;.7 %.=.W H I q.*.*.3.r.-.s.'.I.",
"d d G G f P q f q b * O 4.W j k k j j &.9XwXp.x 5 # X X X X X q v b W @ N k V 0 G ) l H b v #.G.<.) ",
"d v H 1.K I d b f b @ $ K d b l J 6.Q :.9XwXp.i 5 # X X X X X X $ q d X m 5.l L E J v f b f b b e V ",
"f d b 8.4.d $ f v v o % m L 3.0.1.8.W *.8XwXp.i 5 # X X X X X X $ q d X H F.H J J [ L L 8.W b k J R ",
"m v H q.-.K d K b b X e I <.w.8.9.[ H ;.9XwXp.i 5 X X X X X X X @ 9 q X 9 H e k E 7.w.n.S.n.{ {  .| ",
"W m W q.5.v a j W l X % W w.0.1.8.6.Q @.9XwXp.i 4 + X X X X X X @ % % X $ k J W Q { Q | M.M.C. .^ o.",
"m f I H f e f d j 9   j w.6.0.6.[ 1.| 5.9XwXp.i 4 X X X X X X X o $ 0 o % b l L ! E ( | 6.M.D.n.{  .",
"a b H d 9 9 & 0 % % X k 7.7.0.( w.0.7.r.8XwXp.i 4 X X X X X X X X X e @ & s a f L [ 6.( { g. .H. .o.",
"X X X X X X X X X X X $ 9 & * % e e & M qXwXi.i 4 + X X X X X X X X $ X X X o o @ % % - = - & : & & ",
"X 9 e * e 0 k b b l f c g d f a % a % @.0X0Xp.p 4 # X X X X X X X X X o $ % $ % % 9 9 % @ $ # # # X ",
"6 M K -.4.4.q.+.W L I H =.4.r.w.=.+.#.s.8X0Xa.p 4 # X X X X X X X o = a a k l k d v M M M m K +.v 8 ",
"O q m -.M 5.=.K b v #.+.I r.t.4.e.-.y.t.8X9Xi.p 4 X X X X X X X X o * e e s a 9 $ $ 9 r d d b H b $ ",
"X y L 5.-.<.L #.I b #.5.4.5.*.-.I.5.N.I.7X9Xi.p 4 X X X X X X X X X = s s 9 9 9 w @ O e q d f v q $ ",
"o b 5.5.y.F.3.=.Q [ W =.I *.4.5.t.#.q.e.7X9Xi.p 4 X X X X X X X X @ % e s j a d 8 q k @ X $ * 9 d % ",
"X =.t.5.t.'.r.2.2.=.#.4.I -.y.4.=.I =.e.7X8Xu.p 4 X X X X X X X X $ * * h A j 0 0 l s X @ $ $ $ y % ",
"X v 2.8.r.r.d 6 m K 4.=.L <.F.I.y.3.=.;.6X7Xu.p 4 + X X X X X X o $ = e z z j e s s a q $ $ 9 9 d 9 ",
"X 9 I q.1.[ g v b K v v Q G J [ ! L k M 6X6X,.t O X X X X X X X o $ = e h h s h s $ G e # y v M K 9 ",
"X 9 H G h E W L L b H K f v v k v K b :.0X0Xd.,.n y @ X X X X X @ % e s k k z k V l J e $ = % d v * ",
"  X o X X o @ o @ X % = X * 0 0 f a % j OXdXlXzXzXjX,X]   X X X o o @ - % @ % & = & % X X X X X X X ",
"e d y * % * * * $ $ $ X X X X X X X # # $ - 2 2 2 2 1 @ X X X X . X X X X X X X X X $ * 9 9 y i x x ",
"W Q [ ( E Q m W ! [ k # @.P *.Q I <.N.0.B.D , , , ; & % @ @ X o % @ 9 $ # q @ % q m G l b ! L L Q Q ",
"W K W <.Q L f v b 6.= % v f l E H ! ..Z._.+Xc.v.z.l.l.~ < & % @ % @ * @ X 9 A d e V l l H 4.Q J l L ",
"2.Q =.-.#.*.b K <.E % X v v v 1.J H | Z.-X1X%X|.|.f.z.f._ C : = % % * % @ L [ V Y 1.W W q.I.q.! W W ",
"5.W ! <.#.#.W W L d % o v H I V.m.m.!.!.~.<X@X#Xb.c.c.f._ z 3 z > h k % % 1.6.Y [ w.8.[ 1.r.I.5.<.3.",
"4.f e Q r.8.-.=.e d 0 X 9 v K ! h.D.j.~.Q.!.!.}.b.|.b.f.o.F C C h C s X - 3.6.[ Q { Y R 8.P.I.r.r.I.",
"[ f d k ` W m b d K 0 X d #.[ Y ^ ^ E ^ Z.k.W.!.v.}.b.z.l.F F C C = = X % ..) E ( E A T G.T.P.w.3.].",
"! k L H l J W d f d % $ v v Q | } { E g.K.Q.+X}.`.x.W.k.k.x.j.C : % a X @ ..{ E T T Y { B.F.^ T T | ",
"J f H H l e % 9 0 9 @ @ l v l z l J J m.E.&X+X+X~.!.=X!._.L.} V s V h @ @ R A S ) ) 7.P.P.G.( ) ( ( ",
"= % $ * = @ X $ $ @ X X $ X X X X X X o & & ; 3 ; > > : & - o @ % @ X   X * o % & & & = : = & & - $ ",
"X # % $ @ @ $ $ $ $ 0 y x v a a k N U U N &.N g B $ # g = u u = 3 & $ = 0 0 9 % % % % @ @ @ $ O @ % ",
"9 y 6.{ { ( [ 7...0.U.V.M.M./ Z._.}._.&X-X>X&X=X3X] g Q.). XE.D.o./ B.{ D S V l l f d d d d q v d d ",
"= : ) / 7.m.n.X.g.C.C.M.| | S.E.^.^.K./.;X_._.^._.Z = A.A.W.Q./.M.o.D S V l h h s a q q v j f K 9 9 ",
"* s 7.6.0.U.N.S.N.Y.S.7.{ U.[.).{.{.XX&XrX=X*XXX=XA : A.D.E././.E.Z.D V s l a A J f d k v k ! j w y ",
"= s H.P.R.T.].H...C.V.N.X.(.Y.[.{.*X*X=X;X_. X&X&XA 3 g.D.A.E._.E.K./ T E R j l E Q J J j f d q d f ",
"% j (.U.'.I.R.P.V.| R.w...S.L.{.XXY.(.XX_._././._.Z z X.X.A.E./.E.M.D | 7.E R ! [ m.| J l f q q f K ",
"% m [.P.R.[.[.[.B.7.Y.0.U.S.U.oXP.G 6.N.m.K.m.E.L.V & ! E o.W.A.h.X./ m.{ { | ( R J l k V f q 9 d j ",
"o P [.V.Y.(.(.(.G.B.T.U.P.2.w.L W [ k L Y } J.Y.XXV = { { g.h.g.| S.n...{ 7.o.^ Y d 9 V T V j d f d ",
"  P T.Y m.V.U.U.V.C.V.w.<.<.H G 0.8.<.Q 7.q.{ | [ : $ E Y E ) Z [ V.} E Q [ o.S k V l V h z V V e e ",
"X $ 9 o = : e r = % : : : s = & z l ' l A l % s e X + $ @ @ o @ : - % @ o % & @ o % % @ X @ @ % X X "
};
