/* XPM */
static char *ayqee_d99pj[] = {
/* columns rows colors chars-per-pixel */
"50 50 255 2 ",
"   c #030005",
".  c #150100",
"X  c #280A00",
"o  c #481D02",
"O  c #592801",
"+  c #5B3604",
"@  c #4C2002",
"#  c #6C3500",
"$  c #6C3A03",
"%  c #653805",
"&  c #723C01",
"*  c #753900",
"=  c #622F01",
"-  c #6C4B06",
";  c #6E4C08",
":  c #674405",
">  c #734305",
",  c #714D07",
"<  c #784707",
"1  c #755206",
"2  c #7A5506",
"3  c #7C5906",
"4  c #765309",
"5  c #7A5509",
"6  c #7D5A09",
"7  c #755909",
"8  c #644F17",
"9  c #7E600E",
"0  c #6E5B27",
"q  c #844A04",
"w  c #894B03",
"e  c #845C06",
"r  c #835D09",
"t  c #885708",
"y  c #965807",
"u  c #A25D05",
"i  c #836204",
"p  c #8B6405",
"a  c #856209",
"s  c #8A6509",
"d  c #8D6A0A",
"f  c #896B07",
"g  c #926C0B",
"h  c #9A6D0B",
"j  c #926709",
"k  c #94720C",
"l  c #9B740B",
"z  c #9D7A0C",
"x  c #9A7703",
"c  c #876715",
"v  c #9A7814",
"b  c #8F6C18",
"n  c #A76709",
"m  c #B46A06",
"M  c #A27D02",
"N  c #A37C0C",
"B  c #A9760C",
"V  c #B4750C",
"C  c #BB7C0D",
"Z  c #B8770D",
"A  c #B97B10",
"S  c #A17515",
"D  c #8B722A",
"F  c #905D23",
"G  c #C47809",
"H  c #D17B00",
"J  c #947646",
"K  c #A57C49",
"L  c #9F821C",
"P  c #A5820E",
"I  c #AB830C",
"U  c #AC8A0D",
"Y  c #A88504",
"T  c #B3850E",
"R  c #B38B0D",
"E  c #B88808",
"W  c #B6910C",
"Q  c #BB920B",
"!  c #AA8412",
"~  c #AD8C13",
"^  c #A88817",
"/  c #B28D12",
"(  c #BA8813",
")  c #AF9017",
"_  c #B39314",
"`  c #BB9313",
"'  c #BA9A14",
"]  c #BB9C1B",
"[  c #B8961A",
"{  c #BFA11B",
"}  c #9C8020",
"|  c #A48722",
" . c #B79929",
".. c #B99A33",
"X. c #A88C32",
"o. c #BEA127",
"O. c #BDA131",
"+. c #C3840F",
"@. c #CC890F",
"#. c #C78706",
"$. c #D38D0E",
"%. c #D78206",
"&. c #C59909",
"*. c #D9920D",
"=. c #C38510",
"-. c #CD8B10",
";. c #C88711",
":. c #D38E11",
">. c #C49B12",
",. c #C29D1C",
"<. c #C99F12",
"1. c #DB9411",
"2. c #D69211",
"3. c #E3950F",
"4. c #EA9C0F",
"5. c #E69A0E",
"6. c #F39D06",
"7. c #E49A12",
"8. c #EC9D11",
"9. c #E19410",
"0. c #E48E10",
"q. c #C3A31C",
"w. c #C9A316",
"e. c #D5AA16",
"r. c #DEB41C",
"t. c #D9B419",
"y. c #CFA40A",
"u. c #E6A40B",
"i. c #F0A208",
"p. c #EDA211",
"a. c #E5A413",
"s. c #F4A413",
"d. c #F4AA13",
"f. c #FBAC15",
"g. c #E6BC19",
"h. c #FDB415",
"j. c #FBBA16",
"k. c #FAB616",
"l. c #E6BF06",
"z. c #C19A20",
"x. c #C4A423",
"c. c #C8AA27",
"v. c #D4AC21",
"b. c #CEB229",
"n. c #D8B728",
"m. c #C6A838",
"M. c #D8BB33",
"N. c #CDB230",
"B. c #E5BC23",
"V. c #E49F37",
"C. c #DDC31D",
"Z. c #EBC41C",
"A. c #FDC41A",
"S. c #FECC1C",
"D. c #FDC417",
"F. c #FDD11D",
"G. c #F9DB1A",
"H. c #FADE0E",
"J. c #FAE418",
"K. c #E9C328",
"L. c #F5CD27",
"P. c #FCDC2C",
"I. c #FBD725",
"U. c #E7CB36",
"Y. c #EDD33B",
"T. c #E9D538",
"R. c #F8D937",
"E. c #FBE52B",
"W. c #F8E627",
"Q. c #FCE431",
"!. c #FBE935",
"~. c #FCE33B",
"^. c #FCEC3C",
"/. c #F4E534",
"(. c #F6E835",
"). c #DBC038",
"_. c #B18C51",
"`. c #B5A253",
"'. c #B89C73",
"]. c #BDA376",
"[. c #C69551",
"{. c #CCB146",
"}. c #CAB259",
"|. c #CDB452",
" X c #C9B464",
".X c #CCB16D",
"XX c #EEB44F",
"oX c #F3DB45",
"OX c #EAD44D",
"+X c #FDEB43",
"@X c #FDEC4B",
"#X c #F6E44B",
"$X c #FCF14C",
"%X c #FCF445",
"&X c #F9EC56",
"*X c #FCF154",
"=X c #FFF957",
"-X c #FCF25B",
";X c #DCC865",
":X c #E8D767",
">X c #E9D16B",
",X c #F6E769",
"<X c #FDF463",
"1X c #FCF36A",
"2X c #FEFB67",
"3X c #F5E878",
"4X c #FCF573",
"5X c #FDF972",
"6X c #FEF67D",
"7X c #FEFB7A",
"8X c #EBE068",
"9X c #DFCB53",
"0X c #D0B98E",
"qX c #CEBDA8",
"wX c #D8CA96",
"eX c #DCCA89",
"rX c #ECD285",
"tX c #FEF783",
"yX c #FDF884",
"uX c #FEFB8B",
"iX c #F7F68D",
"pX c #FFFE94",
"aX c #FDFC9C",
"sX c #F3E696",
"dX c #DDD4BB",
"fX c #DACFAE",
"gX c #E2D9B5",
"hX c #E8D8AF",
"jX c #FEFDA6",
"kX c #F2E8B2",
"lX c #FDFDB2",
"zX c #FCF8BC",
"xX c #F3E8B5",
"cX c #D9D0C7",
"vX c #E9E3CA",
"bX c #F3ECC8",
"nX c #FFFFC3",
"mX c #F2EAD6",
"MX c #abdbc9",
"NX c #abdbc9",
"BX c #abdbc9",
"VX c #abdbc9",
"CX c #abdbc9",
"ZX c #abdbc9",
"AX c #abdbc9",
"SX c #abdbc9",
"DX c #abdbc9",
"FX c #abdbc9",
"GX c #abdbc9",
"HX c #abdbc9",
"JX c #abdbc9",
"KX c #abdbc9",
"LX c #abdbc9",
"PX c #abdbc9",
"IX c #abdbc9",
/* pixels */
"HXAXAXAXAXHXNXHXAXAXSXNXHXNXSXAXAXHXNXHXCXAXAXNXKXNXSXCXAXSXNXHXNXSXAXAXHXNXSXAXAXSXNXHXNXSXAXAXHXNX",
"NXSXAXAXSXAXSXAXSXAXAXSXAXSXAXAXAXVXSXAXJXFXFXHXDXHXDXFXFXAXHXVXSXAXAXSXNXHXAXSXAXAXSXNXSXAXSXSXAXHX",
"SXAXLXAXAXSXAXSXAXAXAXAXSXAXAXAXAXKXFXCXbXhXrX>X>X>X>XsXkXbXCXFXDXAXAXAXLXAXSXAXAXAXAXSXAXSXAXAXLXAX",
"AXAXAXAXAXAXAXAXAXAXAXAXAXAXAXKXAXgX XM.w.#.#.#.#.#.#.&.y.g.R.,XkXAXFXAXAXAXAXAXAXAXAXAXAXAXAXAXAXAX",
"AXSXAXAXAXAXSXAXLXAXAXAXCXHXAXwXm.&.&.E Z +.:.1.7.7.7.7.1.@.&.l.H.R.sXAXDXSXAXLXAXAXAXAXSXAXAXAXAXLX",
"SXAXAXAXAXSXAXSXAXAXAXAXHXfXO.Q y.` V +.:.1.9.7.5.8.p.d.d.k.d.2.e.G.H.R.zXDXFXCXAXAXAXHXAXSXAXAXSXNX",
"NXJXAXAXSXNXHXAXSXAXFXZX}.W &.w.T V -.2.:.1.3.5.4.p.d.d.k.j.D.S.g.w.G.J.G.,XBXFXAXAXSXNXJXAXAXLXAXHX",
"HXAXSXAXAXHXNXJXVXJXvX .E q.w.B C :.-.$.2.1.5.4.p.d.d.k.A.S.S.I.E.L.e.W.W.J.~.bXFXLXPXHXNXSXAXAXSXNX",
"NXSXAXAXSXAXKXCXKXgXU W ,.w.T V @.@.-.$.1.3.4.p.d.d.k.A.S.I.P.~.@X*XoXC.!.!.W.W.kXFXSXVXSXAXAXAXAXHX",
"SXAXAXAXAXLXCXKXfXY W ' ' ' V ;.@.@.@.$.1.5.8.s.d.k.D.S.I.Q.+X-X1X1X5XOXT.%X%X!.W.kXFXLXAXLXAXAXAXAX",
"AXAXAXAXAXAXJXgXY _ ' ' q.T C ;.+.@.$.1.3.4.8.d.h.D.S.F.P.+X-X4X6XtXtX4XT.<X*X$X^.I.bXFXAXAXAXAXAXAX",
"AXLXAXAXAXAXMX^ R ' ` ,.q.V +.+.+.@.$.*.5.4.p.d.h.D.F.G.Q.@X1X6XtXtXtXuXOX,X5X-X*X^.Q.mXJXAXAXAXAXSX",
"HXAXAXAXAXSX..Y _ _ ' q.,.V +.+.+.@.$.*.5.4.s.f.j.D.F.I.!.*X4XtXtXtXtXuX8X8XuX4X<X*XW.#XAXSXAXAXSXNX",
"NXHXAXCXHX].M _ _ _ { q.' V =.+.+.@.$.1.7.8.s.f.j.D.F.I.!.*X4X6XtXtXtXyX,X:XjXuX4X-X$XG.rXDXAXSXAXHX",
"HXAXAXHXcXq ~ ~ _ ' q.b.] V +.+.=.-.:.1.7.8.s.f.j.D.F.G.E.@X1X6XyXtXyXuX,X:XlXaXyX1X@X/.u.mXDXAXSXNX",
"NXSXAXKXJ q _ U _ ] q.b.z.V =.+.=.-.$.1.7.8.s.f.h.A.S.G.E.^.-X4XtXtXyXpX3X>XzXjXaX6X$X/.u.XXFXAXAXHX",
"SXAXHXfX# t ~ ~ ' { x.b.x.V +.=.;.;.:.1.1.7.p.d.h.j.D.F.I.Q.@X<X6XtXuXpX3XrXnXlXjXtX&X/.e.i.hXFXAXAX",
"AXAXKXJ $ s U _ ' q.x.b.b.A ( =.;.@.-.:.1.1.7.p.d.h.j.A.F.I.Q.$X<X7XyXpX:XsXnXlXjXtX&X/.e.i.XXFXAXAX",
"AXHXIX> > s U _ ] q.x.c.b.` Z ( =.;.@.-.:.:.1.7.p.s.f.h.A.S.I.Q.+X-X4X6X9XlXlXjXpX5X+XW.e.i.4.mXLXLX",
"SXKX'.$ > g ~ _ ] q.x.c.b.x.V Z C ( =.=.;.-.:.1.7.7.p.d.h.j.A.I.P.~.*XY.:XaXpXuX7X=X(.W.e.a.6.rXKXNX",
"NXJXD & > k ~ _ ] { x.x.x.c.( n V V V Z C C +.+.@.:.1.7.p.s.f.j.A.I.I.n.1X5X2X2X=X%X!.W.t.1.6.V.AXHX",
"HXIX> > > z ~ _ _ ] ] ] ] ,.,.B y n n n n n n m m V Z G +.$.0.8.s.f.a.Y.@X@X$X$X%X^.Q.W.r.$.p.0.mXAX",
"FXqX& > > z P ~ ~ ~ ~ ~ ~ / / / h q q w w w t y y y y u n m Z G %.$.B.R.R.R.~.~.!.!.E.P.g.+.8.%.hXHX",
"HX].# $ < z P P P P P P N N N z z j & O O = = = # & & * < q w u C w.r.B.K.L.L.P.P.P.P.I.Z.G 3.%.0XFX",
"HX_.# % < z z z z z l l g d s a r r r < + o o o o o @ @ O $ t B I R ` <.e.r.B.K.L.L.L.L.Z.A %.H .XKX",
"JXK # % t l k k k d s a 3 5 4 1 1 , , 5 r t < $ % % $ < t j j p g l N I Q >.w.e.r.B.K.g.Z.C G G [.HX",
"HXK # = r k d s a 6 5 1 - ; - - - - - - - 1 5 r r r r r 3 2 2 r r a g h N I R Q >.e.e.e.g.T m m [.AX",
"AXK # % a s a r 3 4 , - - : - - - , 1 5 r a a a p p a a a r r r r r r a j h N I T ` >.<.w.T u m [.HX",
"HX_.# $ r 3 6 5 4 1 - - - - ; 5 e d l z N N N N N N N N z l k g s a e r r s g l N I T R ` T y u _.DX",
"FX'.# > 3 4 5 5 5 4 4 2 3 a g z N I I I I T I I I I I N N z l l l l g s a e a g k N N I I I y w .XHX",
"HX0X* t 5 1 4 5 3 r i s g N I I I I ! N l g s p s p j g h l N l l g g l l s a a s g l l z N j w 0XKX",
"KXdXw j 5 2 6 r a s g l N I I I z s 4 : - , 5 c c c c s r e e p h l g g g l g s a a d g g l h q gXHX",
"AXVXS N r 2 r r a d l N N N l 6 : % 4 b |  . ...m.m.{.{.{.{. .v t e j g g g d s a 3 a s s k l F VXSX",
"SXFX}.Y g 3 3 6 a g l l g 6 % + 6 }  .X.D  .M.).OX:X8X3X;XX.;X:Xm.v 2 t s p a a e 6 3 6 a v x '.HXNX",
"NXHXvXW ! s 3 5 r s s a - + ; L ..O.m.D |. .U.Y.oX&X,XtX}.|.`.pXtX:X..5 , r r r r 5 1 5 s k P vXLXJX",
"HXNXFX XE N e 5 3 6 5 - + 6 )  .O.m.M.9 j v Y.U.Y.#X,X6X_.e J pXiXyX,XN.r : 2 5 3 5 2 3 d f `.KXSXNX",
"NXSXLXMX .T l e 2 2 - % a )  .o.c.N.M.8 X c Y.U.Y.oXoX1XD X 0 pXyX4X-X~.t.r % 1 5 6 9 f f v BXJXAXJX",
"SXAXAXKXgXW ~ l r 1 : a ~ ) ] x.c.N.M.8 X c Y.U.Y.Y.oX*XD X D 7X4X<X@XP.L.t.e : 7 9 c f f dXKXAXSXAX",
"AXAXAXAXKXgX_ I v r 6 ~ P ~ [ o.x.c.M.8 . c U.U.U.Y.Y.+XD . D =X@X+XQ.I.Z.g.>.- 7 c i k dXJXAXAXAXAX",
"AXLXAXAXAXFXvXm.Y z v _ z P ~ [ ] o.b.D   | K.M.K.U.U.R. .   .^.R.P.L.Z.g.e.e.a 3 3 X.vXHXCXAXAXAXSX",
"JXAXLXAXAXSXAXLXwX .I [ z l P ~ _ ] ,.x.^ v.v.n.n.n.B.K.K.x.L.L.L.Z.g.t.y.>.w.p D 0XAXHXNXSXAXAXSXPX",
"NXHXAXAXSXPXKXPXKXAXwX .N d d k N P ~ [ ,.,.q.w.v.v.v.v.r.g.r.r.e.y.<.` T T ' wXAXKXSXNXKXAXAXSXAXHX",
"HXNXAXAXAXHXNXSXCXAXHX|.U g a a s d g l N ! ! / / ` ` ` ` ` ` ` Q E I N S M }.KXAXAXNXHXNXSXAXAXSXNX",
"NXSXAXAXSXPXSXAXLXAXAXxX` ^ k s a s s d g k l l z N N N N I P N N l g g l M gXJXAXAXSXNXSXAXAXAXAXJX",
"SXAXAXAXAXSXAXLXAXAXAXFXeXW ~ v k g d g g k k k l l l l l l k g d s a p p .XHXAXAXAXAXSXAXAXAXAXLXAX",
"AXAXAXAXAXAXAXAXAXAXAXAXFXwXx.W ~ P P l v k k k k k k g g k k k x j p k 0XKXAXAXAXAXAXAXAXAXAXAXAXAX",
"AXSXAXAXLXAXSXAXAXAXAXSXAXHXMXwX}.m.[ _ R U Y Y Y M M x M M M P ^ `.wXMXKXSXAXLXAXAXSXAXSXAXAXAXAXSX",
"HXAXSXAXAXSXNXSXAXAXSXNXKXNXSXJXLXZXvXgXwXeX.X X X X X.X.XwXfXvXBXHXKXAXSXAXSXAXAXLXAXHXPXSXAXAXSXNX",
"NXHXAXAXSXNXHXNXSXAXAXSXNXSXAXAXAXAXHXDXHXJXJXHXDXHXFXHXHXJXHXAXHXAXAXSXPXHXAXSXAXAXSXNXHXAXAXSXAXHX",
"HXAXSXAXAXJXNXSXAXAXSXPXHXAXSXAXAXSXNXSXVXAXAXNXSXNXSXAXAXSXNXSXNXSXAXAXKXNXSXAXAXSXAXHXAXSXAXAXSXNX"
};
