/* XPM */
static char *ad3xz_zjn7w[] = {
/* columns rows colors chars-per-pixel */
"50 50 237 2 ",
"   c #0B0A0A",
".  c #060504",
"X  c #110B08",
"o  c #180D12",
"O  c #1C1A1B",
"+  c #1A1616",
"@  c #18150D",
"#  c #221C1B",
"$  c #27131C",
"%  c #260E19",
"&  c #2B2507",
"*  c #352D08",
"=  c #282516",
"-  c #3A3310",
";  c #2A1921",
":  c #361826",
">  c #2B292A",
",  c #342C2D",
"<  c #393526",
"1  c #3B2E34",
"2  c #393537",
"3  c #253E3A",
"4  c #0B2636",
"5  c #463D0D",
"6  c #481E31",
"7  c #451D2F",
"8  c #442A35",
"9  c #56253C",
"0  c #44373D",
"q  c #40212F",
"w  c #623B2B",
"e  c #394735",
"r  c #564B10",
"t  c #655916",
"y  c #6F5518",
"u  c #786818",
"i  c #6E6016",
"p  c #524D31",
"a  c #6B5635",
"s  c #73652F",
"d  c #0A3656",
"f  c #443E41",
"g  c #593F4B",
"h  c #683549",
"j  c #6F324E",
"k  c #385758",
"l  c #195071",
"z  c #275E75",
"x  c #484747",
"c  c #574848",
"v  c #5B5A5A",
"b  c #50514D",
"n  c #67484E",
"m  c #66564C",
"M  c #714F53",
"N  c #53694E",
"B  c #746552",
"V  c #785666",
"C  c #6C5661",
"Z  c #5F6160",
"A  c #656464",
"S  c #6A6A6A",
"D  c #786B68",
"F  c #787777",
"G  c #726F6E",
"H  c #42596E",
"J  c #846A17",
"K  c #877619",
"L  c #A97B1A",
"P  c #875131",
"I  c #866A27",
"U  c #867926",
"Y  c #977A2D",
"T  c #A17A26",
"R  c #863A5D",
"E  c #953F68",
"W  c #8D7657",
"Q  c #93754C",
"!  c #884A67",
"~  c #99456C",
"^  c #83586B",
"/  c #94526C",
"(  c #885C71",
")  c #985977",
"_  c #9D4A71",
"`  c #A84976",
"'  c #B34D7D",
"]  c #B64B7E",
"[  c #A7547A",
"{  c #B05F72",
"}  c #8A6476",
"|  c #95677C",
" . c #8D716D",
".. c #A05861",
"X. c #9B881C",
"o. c #8D841C",
"O. c #A8881C",
"+. c #B3901E",
"@. c #9B8725",
"#. c #AA9524",
"$. c #B79923",
"%. c #A7862E",
"&. c #BAA524",
"*. c #B3A230",
"=. c #D5991E",
"-. c #C8911B",
";. c #D99F20",
":. c #C7A724",
">. c #D9A923",
",. c #D7B828",
"<. c #C6B32B",
"1. c #E1AD24",
"2. c #ECBE28",
"3. c #E6B927",
"4. c #DBC229",
"5. c #EDC229",
"6. c #ECCC2D",
"7. c #E5C72B",
"8. c #F1C62A",
"9. c #F4CC2C",
"0. c #F8CE2D",
"q. c #EDD22D",
"w. c #F6D22E",
"e. c #F9D52F",
"r. c #FCDC31",
"t. c #FFE232",
"y. c #FFEA33",
"u. c #BDA040",
"i. c #A68879",
"p. c #AB896E",
"a. c #A88653",
"s. c #2B5D85",
"d. c #2A6997",
"f. c #7F7E81",
"g. c #BD4D83",
"h. c #BC5183",
"j. c #B15C83",
"k. c #A55A80",
"l. c #9A6C81",
"z. c #917683",
"x. c #A86885",
"c. c #A9758D",
"v. c #AB7C92",
"b. c #B47C95",
"n. c #B57795",
"m. c #B46E8E",
"M. c #BE7EA1",
"N. c #C54E87",
"B. c #C65489",
"V. c #CC5A8E",
"C. c #C55489",
"Z. c #D95C97",
"A. c #D75894",
"S. c #D0558F",
"D. c #E2599B",
"F. c #DC6099",
"G. c #C3779D",
"H. c #D2758E",
"J. c #E2629D",
"K. c #CC7CA4",
"L. c #E965A2",
"P. c #F269A8",
"I. c #E17CB0",
"U. c #2283BE",
"Y. c #5F8DAC",
"T. c #2285C3",
"R. c #838283",
"E. c #8B8A8A",
"W. c #898687",
"Q. c #939393",
"!. c #99999A",
"~. c #978E8A",
"^. c #B99989",
"/. c #BC839D",
"(. c #B88599",
"). c #A58F80",
"_. c #BCA18F",
"`. c #9F9FA1",
"'. c #BE84A1",
"]. c #AAAAAB",
"[. c #A5A3A4",
"{. c #B4B3B4",
"}. c #BCBBBC",
"|. c #B8B7B8",
" X c #B1AFB0",
".X c #C8A793",
"XX c #D7A896",
"oX c #D0B39F",
"OX c #CA87A8",
"+X c #D484AC",
"@X c #CA93AC",
"#X c #DC8BB4",
"$X c #DA9CB8",
"%X c #CD97B0",
"&X c #ED85BA",
"*X c #F385BD",
"=X c #E895BE",
"-X c #DAB9A4",
";X c #DEA3BE",
":X c #E6BBA5",
">X c #E2A5BF",
",X c #E5B89F",
"<X c #ECC2AA",
"1X c #F4C5AB",
"2X c #F6CCB2",
"3X c #F9D3BA",
"4X c #E5C6B1",
"5X c #BEBEC1",
"6X c #F68CC1",
"7X c #E79DC2",
"8X c #F79CC9",
"9X c #F99CCB",
"0X c #F496C5",
"qX c #E9AAC7",
"wX c #F9A2CD",
"eX c #F4A6CC",
"rX c #F2B1CE",
"tX c #FCABD3",
"yX c #FCA9D2",
"uX c #FCB3D6",
"iX c #FFB6D9",
"pX c #FFBADA",
"aX c #F7B5D3",
"sX c #C4C4C4",
"dX c #CACACC",
"fX c #D5D5D5",
"gX c #DBDBDC",
"hX c #D6D7D8",
"jX c #CED0D3",
"kX c #FCD9C1",
"lX c #DDE0E1",
"zX c #E4E4E4",
"xX c #ECECEC",
"cX c #E7E8E8",
"vX c #abdbc9",
"bX c #F8F8F8",
"nX c #F0EFEF",
/* pixels */
"vXvXvXvXvXvXvXvXvXvXvXvXvXvXvXvXvXvXbXbXbXvXbXbXvXbXvXvXvXvXvXvXvXvXvXvXvXvXvXvXvXvXvXvXvXvXvXvXvXvX",
"vXvXvXvXvXvXvXvXvXvXvXvXvXvXvXvXvXbXgX{.cXbXhXQ.A |.bXbXbXbXbXbXvXvXvXvXvXvXvXvXvXvXvXvXvXvXvXvXvXvX",
"vXvXvXvXvXvXvXvXvXvXvXvXvXvXvXvXvXbXsX# b G p o.X.< R.dX5X].!.E.zXvXvXvXvXvXvXvXvXvXvXvXvXvXvXvXvXvX",
"vXvXvXvXvXvXvXvXvXvXvXvXvXvXvXvXvXfXG - &.K #.u.<.<.t t t t * f xXvXvXvXvXvXvXvXvXvXvXvXvXvXvXvXvXvX",
"vXvXvXvXvXvXvXvXvXvXvXvXvXvXvXvXzXx d b 4.@.m.+X[ #.q.3.@.N 3 2 fXbXvXvXvXvXvXvXvXvXvXvXvXvXvXvXvXvX",
"vXvXvXvXvXvXvXvXvXvXvXvXvXvXbXvXsXO l N :.Y { H...O.:.L k T.s.. !.bXvXvXvXvXvXvXvXvXvXvXvXvXvXvXvXvX",
"vXvXvXvXvXvXvXvXvXvXvXvXbXvX}.A p r i U X.K i u u K K i e z 4   ].bXbXvXvXvXvXvXvXvXvXvXvXvXvXvXvXvX",
"vXvXvXvXvXvXvXcXxXbXbXbXcXF = K ,.r.t.t.t.7.X.&.,.7.6.6.7.<.X.t < S dXbXvXvXvXvXvXvXvXvXvXvXvXvXvXvX",
"vXvXvXvXvXvXxXA v `.[.E.x 5 :.t.t.t.t.t.t.r.t.t.t.t.t.t.t.y.y.r.,.i < !.vXvXvXvXvXvXvXvXvXvXvXvXvXvX",
"vXvXvXvXvXvXcX, & K K K #.q.y.t.t.t.t.t.t.t.t.t.t.t.t.t.t.t.t.t.t.t.$.= f.xXbXvXvXvXvXvXvXvXvXvXvXvX",
"vXvXvXvXvXvXxXv & 7.y.y.y.t.r.r.t.t.t.t.t.t.t.t.t.t.r.r.r.t.t.t.t.t.y.:.- F cXbXbXbXbXbXvXvXvXvXvXvX",
"vXvXvXvXvXbXfX2 . r ,.t.t.t.:.,.r.r.t.t.t.t.t.t.t.r.w.w.r.t.t.t.t.t.t.t.,.r b R.].5XsXsXxXvXvXvXvXvX",
"vXvXvXvXvXbX}.  i &.7.t.t.r.:.J 5.w.e.r.r.r.r.r.w.,.$.w.t.t.t.t.t.r.r.e.e.6.:.X.K U = x cXvXvXvXvXvX",
"vXvXvXvXvXbXgX, * ,.0.0.9.3.T m Y :.2.8.8.5.3.:.%.Q I e.r.r.r.r.e.e.w.0.9.8.8.8.3.K = [.bXvXvXvXvXvX",
"vXvXvXvXvXvXbX{., * J O.O.J B 4XoXp.Y %.%.%.a.p..X<Xp.$.w.w.0.0.9.9.8.5.2.5.,.u * > Q.vXvXvXvXvXvXvX",
"vXvXvXvXvXvXvXbXgXf.@ &.4.$. .).m 4X4X-X:X-X^.-X3X2X<XW $.2.5.5.5.2.3.3.1.1.1.$.-   W.vXvXvXvXvXvXvX",
"vXvXvXvXvXvXbXbXbXsX= ,.y.#.i.B + -XkXkXkXoX+ m 2X2X1X:Xa O.>.Y %.$.1.1.1.>.O.5 # R.xXvXvXvXvXvXvXvX",
"vXvXvXvXvXvXdX{.dXQ.= ,.*.p .X^.i.3X3X3X3X.X#  .2X1X1X:Xs w.,.p ^.W K #.t & 2 G {.fXvXvXvXvXvXvXvXvX",
"vXvXvXvXvXbXS @ s u $.,.k H _.3X3X-X:X:X<X<X.X<X1X,XXXW U <.U m .XW :.6.u @ v F x 2 zXvXvXvXvXvXvXvX",
"vXvXvXvXvXbX{.= K ,.6.7.s l b .X2X^./ / i.1X1X1X1Xi.a @.N Y.d.s.b &.0.8.5.$.K O.* 2 xXvXvXvXvXvXvXvX",
"vXvXvXvXvXvXvX|.A < r 6.9.&.@.U W .XXXXX:X<X:XXX^.B u K l Y.d.U.k ,.9.5.2.2.5.X.X W.bXvXvXvXvXvXvXvX",
"vXvXvXvXvXvXvXbXvXb r 7.#.Q p.i.m 1 m D  .^ M M n a @.@.p s.d.k @.8.5.2.5.:.u 5 . R.bXvXvXvXvXvXvXvX",
"vXvXvXvXvXvXvXvXvXA & s b.eXqXv.V V B s ^ /.@X$X$X} V '.>XqX$X(.Q +.2.3.3.>.:.u O }.bXvXvXvXvXvXvXvX",
"vXvXvXvXvXvXvXbXhX, ; OXtX=X} } 0 < B s #.(.pXeXV (.pXpXpXpXiXtX7XM O.3.1.3.u # ].vXvXvXvXvXvXvXvXvX",
"vXvXvXvXvXvXvXbX[.. ( 9X9X( }  .R.Z jXW.J  .iXv.} pXpXpXpXpXuXyXwX'.t 1.1.1.#.@ |.bXvXvXvXvXvXvXvXvX",
"vXvXvXvXvXvXvXbX X  V =X#X^ f jXE.[.fXgXc b.iX| c.tXqXpXiXuXtX9X8XM.t >.>.1.&.X [.bXvXvXvXvXvXvXvXvX",
"vXvXvXvXvXvXvXvXxXG X c V c F xXF dXcXcXF OXuX@XV b.| @X7X8X0X9X#XM L >.;.1.r > fXbXvXvXvXvXvXvXvXvX",
"vXvXvXvXvXvXvXvXbX!.O v G {.cXhXv sXcXcX].} OXb.c m _.^.( ) G.x.a L =.=.>.y > {.bXvXvXvXvXvXvXvXvXvX",
"vXvXvXvXvXvXvXvXvXv b hXgXcXdXA } z.].gXcXjX{.W.Q.].~.i.a I T O.-.=.=.>.r > {.bXvXvXvXvXvXvXvXvXvXvX",
"vXvXvXvXvXvXvXvXbXE.> Q.].R.0 9 | OXn.} ].gXzXlXfXhXjXQ.h P T -.=.=.>.K o {.bXxXcXvXvXvXvXvXvXvXvXvX",
"vXvXvXvXvXvXvXvXvXxX].2   7 ' L.V.! M j ~ | [.sXdX{.| ~ A.S.` M y L =.O.& c A b v cXvXvXvXvXvXvXvXvX",
"vXvXvXvXvXvXvXvXbXhXR.> 7 ` Z.P.B.! v.^ h.J.h./ ) [ C.V.h.` ` ` ~ E P +.:.$.r . R.vXvXvXvXvXvXvXvXvX",
"vXvXvXvXvXvXvXbXcXx : ~ ` ' V.` } qXpXqXl._ V.V.' ` ' h.h.g.N.N.N.g.E w I 5 = Q.xXvXvXvXvXvXvXvXvXvX",
"vXvXvXvXvXvXvXxXR.$ R ' N.' ! (.aXpXpXpXpX$Xl.) h.V.V.B.h.] ' ' ' ] N.B.' 9 O [.bXvXvXvXvXvXvXvXvXvX",
"vXvXvXvXvXvXbXE.; h.A.' / c.qXpXpXpXpXpXpXpXpXqX'.x.) [ ' g.N.N.S.S.N.N.N.' o , zXvXvXvXvXvXvXvXvXvX",
"vXvXvXvXvXvXxXx : _ ) /.qXpXpXpXpXpXpXpXpXpXpXpXpXpXrX;X%XOXb.n.l.c.c.m.n.x.# 2 cXvXvXvXvXvXvXvXvXvX",
"vXvXvXvXvXvXxXx 8 %XaXqX;XpXpXpXpXpXpXpXpXpXpXpX%X>XpXpXpXpXpXiX$X/.iXuXtXtX(.> E.vXvXvXvXvXvXvXvXvX",
"vXvXvXvXvXbX!.O @XpXaXl.;XpXpXpXpXpXpXpXpXpXpXpX>Xl.aXpXiXiXuXuXtXb.b.tXyXwXwXc.+ Q.vXvXvXvXvXvXvXvX",
"vXvXvXvXbXhX> V pXpX@Xl.pXpXpXpXpXpXpXpXpXpXpXpXpX} @XiXuXuXtXtXtXeX^ OXwX8X0X8X^ + {.bXvXvXvXvXvXvX",
"vXvXvXvXbXF # ;XpXpX} @XpXpXpXpXpXpXpXpXpXpXpXpXpX@X( uXtXtXtXyXyXyX+XV =X0X6X6X=X0 , fXbXvXvXvXvXvX",
"vXvXvXbXfX> V pXpXqXV aXpXpXpXpXpXpXpXpXpXpXpXpXpXaXC $XtXyXyXwXwXwXwX( x.6X*X*X6XOXo S nXvXvXvXvXvX",
"vXvXvXbXW.o %XpXpXv.l.pXpXpXpXpXpXpXpXpXpXpXpXpXpXpXl.c.tXwXwXwXwX9X9X#Xh I.*X*X*X6XV   {.bXvXvXvXvX",
"vXvXvXcX2 8 aXiXiXV @XpXpXpXpXpXpXpXpXpXpXpXpXpXpXpX%XV wXwX9X9X9X8X8X8X! k.6X*X*X*X+X+ b xXvXvXvXvX",
"vXvXbX}.  ( iXuXqXn rXpXpXpXpXpXpXpXpXpXpXpXpXpXpXpXrXn #XwX9X9X8X8X9X9XG.h I.&X&X&X=Xn    XbXvXvXvX",
"vXvXbXW.  ^ OXOXl.g $XqXaXuXpXpXpXpXpXpXpXpXpXpXaXqX$Xg ^ K.K.+XK.K.G.m.[ : ! [ [ [ ` _ 9 1 {.vXvXvX",
"vXbX].O j F.V.V.j j C.j.x.x.m.n.b./././.b.b.n.m.x.j.h.~ 9 N.h.' ' ' g.N.S.j E D.A.A.A.D.Z.q O {.bXvX",
"bXgX, X ` V.Z.Z.j R L.P.P.L.L.J.F.F.Z.Z.F.F.J.L.P.P.P.V.7 N.Z.Z.Z.Z.A.C.` 6 % 9 h j j 9 7 o   S xXvX",
"bXgXF x 1 1 8 0 0 , q 9 j R ~ ` h.C.B.B.B.C.h.' ~ R h : o ; : : : : $ % + , A F A A A S F !.}.zXvXvX",
"vXvXbXxXlXhXhXgXcXfX{.Q.G v x 0 2 1 1 1 1 2 0 x b v G Q.|.sX].!.Q.Q.!.].sXzXvXbXbXvXvXbXbXbXbXvXvXvX",
"vXvXvXvXbXbXbXvXvXbXbXbXbXvXxXcXlXhXhXfXhXgXzXcXxXvXbXbXbXbXbXbXbXbXbXbXbXbXvXvXvXvXvXvXvXvXvXvXvXvX"
};
