/* XPM */
static char *afjd5_fsd3j[] = {
/* columns rows colors chars-per-pixel */
"50 50 216 2 ",
"   c #1C0200",
".  c #050614",
"X  c #230A05",
"o  c #240E08",
"O  c #2D1209",
"+  c #37180D",
"@  c #361A13",
"#  c #3A1D15",
"$  c #3B2117",
"%  c #1F2125",
"&  c #1B263A",
"*  c #21202A",
"=  c #36282A",
"-  c #382E39",
";  c #313132",
":  c #282B3C",
">  c #401D12",
",  c #43241B",
"<  c #47271C",
"1  c #5A2818",
"2  c #6C2C1D",
"3  c #672515",
"4  c #79331E",
"5  c #4B2B24",
"6  c #482C2D",
"7  c #522E24",
"8  c #53312B",
"9  c #59362A",
"0  c #4B3637",
"q  c #563631",
"w  c #5B3B33",
"e  c #593838",
"r  c #48302A",
"t  c #692F22",
"y  c #743323",
"u  c #7B3828",
"i  c #673C38",
"p  c #623024",
"a  c #644336",
"s  c #67463E",
"d  c #7B4936",
"f  c #2C3141",
"g  c #2B354F",
"h  c #353848",
"j  c #303A51",
"k  c #2C2E42",
"l  c #453741",
"z  c #563E44",
"x  c #344360",
"c  c #584849",
"v  c #4C4253",
"b  c #654444",
"n  c #694741",
"m  c #6B4A48",
"M  c #724D44",
"N  c #7D4945",
"B  c #71504D",
"V  c #77595A",
"C  c #675253",
"Z  c #4C5369",
"A  c #545A6B",
"S  c #4F556A",
"D  c #5A606F",
"F  c #5C6477",
"G  c #707071",
"H  c #756B6F",
"J  c #843C24",
"K  c #833E2D",
"L  c #893E28",
"P  c #803F30",
"I  c #86442A",
"U  c #8C432C",
"Y  c #894429",
"T  c #92442C",
"R  c #92492E",
"E  c #97442A",
"W  c #834234",
"Q  c #8C4533",
"!  c #8D4A36",
"~  c #82453B",
"^  c #8B4739",
"/  c #844C3E",
"(  c #8D4A3A",
")  c #914633",
"_  c #934C34",
"`  c #9A4E35",
"'  c #934C3B",
"]  c #984F3B",
"[  c #8C5139",
"{  c #95513C",
"}  c #9A533B",
"|  c #985339",
" . c #A3583F",
".. c #8B4B42",
"X. c #854C47",
"o. c #954E41",
"O. c #984E40",
"+. c #8C5444",
"@. c #8C524C",
"#. c #945343",
"$. c #9A5342",
"%. c #9C5B44",
"&. c #9C564B",
"*. c #9D5B4B",
"=. c #965648",
"-. c #8B5A51",
";. c #895956",
":. c #9D5B52",
">. c #9B5D57",
",. c #A15840",
"<. c #A15B4E",
"1. c #A15E57",
"2. c #9E604A",
"3. c #896657",
"4. c #94645B",
"5. c #9C6B5B",
"6. c #986259",
"7. c #97755A",
"8. c #86684D",
"9. c #A0614E",
"0. c #A4625C",
"q. c #A9655D",
"w. c #A26055",
"e. c #A5715F",
"r. c #8E6869",
"t. c #956967",
"y. c #9A7766",
"u. c #9A7678",
"i. c #8C7478",
"p. c #AB6C6B",
"a. c #A76663",
"s. c #A37363",
"d. c #AA7C6C",
"f. c #A47867",
"g. c #AE7272",
"h. c #A77872",
"j. c #B37877",
"k. c #AA8776",
"l. c #B3857C",
"z. c #AC9679",
"x. c #B0977D",
"c. c #6E7B8F",
"v. c #727B8E",
"b. c #9B7D80",
"n. c #B67F81",
"m. c #7A8297",
"M. c #9C8A83",
"N. c #9C8987",
"B. c #9A9B9C",
"V. c #818184",
"C. c #A68888",
"Z. c #BC8A8D",
"A. c #B88687",
"S. c #A69589",
"D. c #BE8D91",
"F. c #A39899",
"G. c #B1948E",
"H. c #AEA099",
"J. c #BFA29A",
"K. c #B8AA95",
"L. c #9C9CA8",
"P. c #A99CA8",
"I. c #B59CA5",
"U. c #97A3B9",
"Y. c #B3A5A8",
"T. c #B4A9B8",
"R. c #BBB2B9",
"E. c #B8B0AE",
"W. c #C3999A",
"Q. c #C0AE92",
"!. c #C2B094",
"~. c #CBB2AC",
"^. c #CAB4AB",
"/. c #C8B9B6",
"(. c #C7AFA7",
"). c #D5C3BB",
"_. c #CCC3BF",
"`. c #9CAAC3",
"'. c #B7AEC3",
"]. c #A3B1C9",
"[. c #BCBAC9",
"{. c #ADBBD5",
"}. c #B2B7CE",
"|. c #BBCBE2",
" X c #CDC9C7",
".X c #D9CDC6",
"XX c #D9D2CE",
"oX c #C4C4D7",
"OX c #D9D5D4",
"+X c #E2DAD7",
"@X c #E4DCD9",
"#X c #EAE0DF",
"$X c #C7CDE0",
"%X c #CCD4ED",
"&X c #C8D6EA",
"*X c #CCD9F0",
"=X c #D1DBF7",
"-X c #D4E3FC",
";X c #D9E5FE",
":X c #D6E9FF",
">X c #DCEAFE",
",X c #DBE4F4",
"<X c #DDF2FF",
"1X c #E1E1E1",
"2X c #EBE4E2",
"3X c #EDE8E7",
"4X c #EBEAE9",
"5X c #F0EDEB",
"6X c #F3F0EF",
"7X c #E1ECFC",
"8X c #E2F1FF",
"9X c #E3F8FF",
"0X c #EEFFFF",
"qX c #F4F3F3",
"wX c #abdbc9",
"eX c #F8F9FA",
/* pixels */
"wXwXwXwXwXwXwXwXwXwXwXwXwXwXwXwXwXwXwXwXwXwXwXwXwXwXwXwXwXwXwXwXwXwXwXwXwXwXwXwXwXwXwXwXwXwXwXwXwXwX",
"wXwXwXwXwXwXwXwXwXwXwXwXwXwXwXwXwXwXwXwXwXwXwXwXwXwXwXwXwXwXwXwXwXwXwXwXwXwXwXwXwXwXwXwXwXwXwXwXwXwX",
"wXwXwXwXwXwXwXwXwXwXwXwXwXwXwXwXwXwXwXwXwXwXwXwXwXwXwXwXwXwXwXwXwXwXwXwXwXwXwXwXwXwXwXwXwXwXwXwXwXwX",
"wXwXwXwXwXwXwXwXwXwXwXwXwXwXwXwXwXwXwXwXwXwXwXwXwXwXwXwXwXwXwXwXwXwXwXwXwXwXwXwXwXwXwXwXwXwXwXwXwXwX",
"wXwXwXwXwXwXwXwXwXwXwXwXwXwXwXwXwXwXwXwXwXwXwXwXwXwXwXwXwXwXwXwXwXwXwXwXwXwXwXwXwXwXwXwXwXwXwXwXwXwX",
"wXwXwXwXwXwXwXwXwXwXwXwXwXwXwXwXwXwXwXwXwXwXwXwXwXwXwXwXwXwXwXwXwXwXwXwXwXwXwXwXwXwXwXwXwXwXwXwXwXwX",
"wXwXwXwXwXwXwXwXwXwXwXwXwXwXwXwXwXwXwXwXwXwXwXwXwXwXwXwXwXwXwXwXwXwXwXwXwXwXwXwXwXwXwXwXwXwXwXwXwXwX",
"wXwXwXwXwXwXwXwXwXwXwXwXwXwXwXwXwXwXwXwXwXwXwXeX3X@X#X3XqXwXwXwXwXwXwXwXwXwXwXwXwXwXwXwXwXwXwXwXwXwX",
"wXwXwXwXwXwXwXwXwXwXwXwXwXwXwXwXwXwXwXwXwX5X~.Z.A.Z.Z.D.W./.2XwXwXwXwXwXwXwXwXwXwXwXwXwXwXwXwXwXwXwX",
"wXwXwXwXwXwXwXwXwXwXwXwXwXwXwXwXwXqXV.A L.h.q.p.j.Z.D.Z.Z.j.l.~.eXeXwXwXwXwXwXwXwXwXwXwXwXwXwXwXwXwX",
"wXwXwXwXwXwXwXwXwXwXwXwXwXwXwXwX1X; * * & H w.q.g.A.A.n.j.g.p.a.N.D G 1XwXwXwXwXwXwXwXwXwXwXwXwXwXwX",
"wXwXwXwXwXwXwXwXwXwXwXwXwXwXwXwX XB.C.N ; x V 0.g.g.g.g.p.p.0.;.Z h G B.wXwXwXwXwXwXwXwXwXwXwXwXwXwX",
"wXwXwXwXwXwXwXwXwXwXwXwXwXwXwXeXwX.X/ y p f v >.p.p.p.a.a.a.:.v j s /.wXwXwXwXwXwXwXwXwXwXwXwXwXwXwX",
"wXwXwXwXwXwXwXwXwXwXwXwXwXwXwXwX+X+.u u y 0 j @.p.p.p.q.<.1.X.k l d 4.5XwXwXwXwXwXwXwXwXwXwXwXwXwXwX",
"wXwXwXwXwXwXwXwXwXwXwXwXwXwXwXqXs.W W K P i j b a.a.a.a.1.<.e g i ! +.J.wXwXwXwXwXwXwXwXwXwXwXwXwXwX",
"wXwXwXwXwXwXwXwXwXwXwXwXwXwXwXA.( ! Q Q ~ ~ h l >.0.0.0.1.#.0 h d ! #.5.2XwXwXwXwXwXwXwXwXwXwXwXwXwX",
"wXwXwXwXwXwXwXwXwXwXwXwXwXwX(.+.( Q ! ( ..W 6 - @.:.:.1.:.~ f z W ( $.#.J.wXwXwXwXwXwXwXwXwXwXwXwXwX",
"wXwXwXwXwXwXwXwXwXwXwXwXwX.X*.' ( Q ^ ^ W r.C * N *.:.>.&.i : p U _ ] $.5.3XwXwXwXwXwXwXwXwXwXwXwXwX",
"wXwXwXwXwXwXwXwXwXwXwXwX+X5.#.( ( ! ^ X.R.>X:XA 6 =.:.*...= Z F.@.U ] $.%.^.wXwXwXwXwXwXwXwXwXwXwXwX",
"wXwXwXwXwXwXwXwXwXwXwX2Xf.#.' ( ! ( W T.<X,X8X*XZ e &.X.- A &X9X%X-.) $.%.f.qXwXwXwXwXwXwXwXwXwXwXwX",
"wXwXwXwXwXwXwXwXwXwXqXk.=.' ' ! ( ^ ;.*XU.].>X7X|.z ' q c.9X>X=X<XY.U } %.%.^.wXwXwXwXwXwXwXwXwXwXwX",
"wXwXwXwXwXwXwXwXwXwXJ.#.#.' ' ( ' Q C.].F F ,XeX>Xr.( N *X&X&X;X:XoX_ ] } %.d.6XwXwXwXwXwXwXwXwXwXwX",
"wXwXwXwXwXwXwXwXwX2X5.#.' ' ' ' #.Q G.{.. f qXwX7Xi.^ u.|.U.`.-X:X$X' _ | *.*.(.wXwXwXwXwXwXwXwXwXwX",
"wXwXwXwXwXwXwXwXwX^.+.( Q ! ' ' #.^ b.:XZ v.wXwX7Xr.Q u.U.f A -X:XoX( _ | $.%.f.6XwXwXwXwXwXwXwXwXwX",
"wXwXwXwXwXwXwXwXwXC./ Q U Q ) ' ' Q t.;X;X;X,XeX&X@.) u.].. A >X:XR.Q } | | %.9.).wXwXwXwXwXwXwXwXwX",
"wXwXwXwXwXwXwXwXqXy.Q L U Q ! ) 6.h.W [.>X-X;X<XC.) $.-.&Xm.{.;X-Xu.) } ] | } %.G.wXwXwXwXwXwXwXwXwX",
"wXwXwXwXwXwXwXwX6Xy.Q U U Q _ L '.oXJ -.oX-X-XP./ $.$.W P.0X>X>X[.^ ' ] ] _ ] } d.qXwXwXwXwXwXwXwXwX",
"wXwXwXwXwXwXwXwXeXk.! Q Q _ U ;.=X=X4.J d r.3.^ $.#.O.O./ F.$XT.+.Q I.=.` _ _ ` e.3XwXwXwXwXwXwXwXwX",
"wXwXwXwXwXwXwXwXwX~.#._ ) ' K T.;X>XP.3 y u U ] $.$.$.$.{ Q / ! J u.8Xt.T | _ | f.5XwXwXwXwXwXwXwXwX",
"wXwXwXwXwXwXwXwXwXqXd.! Q =...'.-X[.r.2 3 3 2 4 J U ) ) U J J 4 X.%X7XC.Y } | } l.eXwXwXwXwXwXwXwXwX",
"wXwXwXwXwXwXwXwXwXwX@X6._ _ ) @.t.@.^ O.o...^ W u y y y 2 2 t 3 i.=X8XT.L { | *.~.wXwXwXwXwXwXwXwXwX",
"wXwXwXwXwXwXwXwXwXwXwXXX5._ _ T U _ ] $.<.<.&.$.$.$.O.O.$.$.$.$.' 6.I.C.T ] } d.5XwXwXwXwXwXwXwXwXwX",
"wXwXwXwXwXwXwXwXwXwXwXwX2Xl.{ ! | _ _ ) _ _ _ ) ) _ _ ] ] } $.$.} E E E ` } s.+XwXwXwXwXwXwXwXwXwXwX",
"wXwXwXwXwXwXwXwXwXwXwXwXwXwX.Xk.[ U R R R R R R R R _ _ _ _ _ ` ` |  .,.*.k.@XwXwXwXwXwXwXwXwXwXwXwX",
"wXwXwXwXwXwXwXwXwXwXwXwXwXwXwXwX3XG.d I [ I I Y Y Y Y J J T _ ` }  .%.d.).qXwXwXwXwXwXwXwXwXwXwXwXwX",
"wXwXwXwXwXwXwXwXwXwXwXwXwXwXwX Xi.c = < 3.x.S.x.x.x.k.s.7.d 1 1 1 1 < H 4XwXeXwXwXwXwXwXwXwXwXwXwXwX",
"wXwXwXwXwXwXwXwXwXwXwXwXwXwXF.r @ O O O + d x.K.K.!.Q.!.y.$ o X X o @ < V 3XwXwXwXwXwXwXwXwXwXwXwXwX",
"wXwXwXwXwXwXwXwXwXwXwXwXwX Xq q q 5 , # # + 9 7.z.k.z.8.> + @ # , 8 m b w H.wXwXwXwXwXwXwXwXwXwXwXwX",
"wXwXwXwXwXwXwXwXwXwXwXwXwXS.9 m V m w 8 5 , # + w .Xa O $ , < 8 e b V B s M.wXwXwXwXwXwXwXwXwXwXwXwX",
"wXwXwXwXwXwXwXwXwXwXwXwXwXM.a M B m n s w 5 , X c wXH   $ < 8 w a n M M a H.wXwXwXwXwXwXwXwXwXwXwXwX",
"wXwXwXwXwXwXwXwXwXwXwXwXwX_.w 8 7 7 7 < , # # 0 OXwX4XC $ , , < < 7 9 s M.qXwXwXwXwXwXwXwXwXwXwXwXwX",
"wXwXwXwXwXwXwXwXwXwXwXwXwXwXOXY.S.N.N.S.F.E.OXeXwXwXwXwX1XOX X/.R./.XX5XwXwXwXwXwXwXwXwXwXwXwXwXwXwX",
"wXwXwXwXwXwXwXwXwXwXwXwXwXwXwXwXwXwXwXwXwXwXwXwXwXwXwXwXwXwXwXwXwXwXwXwXwXwXwXwXwXwXwXwXwXwXwXwXwXwX",
"wXwXwXwXwXwXwXwXwXwXwXwXwXwXwXwXwXeXeXeXeXwXwXwXwXwXwXwXwXwXwXwXwXwXwXwXwXwXwXwXwXwXwXwXwXwXwXwXwXwX",
"wXwXwXwXwXwXwXwXwXwXwXwXwXwXwXwXwXwXwXwXwXwXwXwXwXwXwXwXwXwXwXwXwXwXwXwXwXwXwXwXwXwXwXwXwXwXwXwXwXwX",
"wXwXwXwXwXwXwXwXwXwXwXwXwXwXwXwXwXwXwXwXwXwXwXwXwXwXwXwXwXwXwXwXwXwXwXwXwXwXwXwXwXwXwXwXwXwXwXwXwXwX",
"wXwXwXwXwXwXwXwXwXwXwXwXwXwXwXwXwXwXwXwXwXwXwXwXwXwXwXwXwXwXwXwXwXwXwXwXwXwXwXwXwXwXwXwXwXwXwXwXwXwX",
"wXwXwXwXwXwXwXwXwXwXwXwXwXwXwXwXwXwXwXwXwXwXwXwXwXwXwXwXwXwXwXwXwXwXwXwXwXwXwXwXwXwXwXwXwXwXwXwXwXwX",
"wXwXwXwXwXwXwXwXwXwXwXwXwXwXwXwXwXwXwXwXwXwXwXwXwXwXwXwXwXwXwXwXwXwXwXwXwXwXwXwXwXwXwXwXwXwXwXwXwXwX",
"wXwXwXwXwXwXwXwXwXwXwXwXwXwXwXwXwXwXwXwXwXwXwXwXwXwXwXwXwXwXwXwXwXwXwXwXwXwXwXwXwXwXwXwXwXwXwXwXwXwX"
};
