/* XPM */
static char *aomim_7ment[] = {
/* columns rows colors chars-per-pixel */
"50 50 256 2 ",
"   c #0C0708",
".  c #281917",
"X  c #36140E",
"o  c #3A231B",
"O  c #33292A",
"+  c #301E27",
"@  c #490506",
"#  c #4E180C",
"$  c #630102",
"%  c #6A0000",
"&  c #710203",
"*  c #771312",
"=  c #57250A",
"-  c #462619",
";  c #592916",
":  c #47230E",
">  c #692B19",
",  c #68331A",
"<  c #743919",
"1  c #6E2C14",
"2  c #731233",
"3  c #493237",
"4  c #512F2C",
"5  c #693624",
"6  c #763B26",
"7  c #663636",
"8  c #511D27",
"9  c #774638",
"0  c #6E4732",
"q  c #06195A",
"w  c #081653",
"e  c #12255D",
"r  c #071C65",
"t  c #091C72",
"y  c #0B226D",
"u  c #062067",
"i  c #162966",
"p  c #092273",
"a  c #092479",
"s  c #142A78",
"d  c #1D326F",
"f  c #2E336E",
"g  c #292B5D",
"h  c #4F2F4B",
"j  c #6F2D6A",
"k  c #62335E",
"l  c #644849",
"z  c #705C55",
"x  c #696669",
"c  c #797879",
"v  c #7E6A6D",
"b  c #595A5B",
"n  c #8B0202",
"m  c #880805",
"M  c #9B0302",
"N  c #990807",
"B  c #951517",
"V  c #8D1610",
"C  c #A60A0C",
"Z  c #B70505",
"A  c #B01616",
"S  c #843C1A",
"D  c #8B2B16",
"F  c #AB2710",
"G  c #8D1F30",
"H  c #943030",
"J  c #AA3129",
"K  c #CA0608",
"L  c #DC0301",
"P  c #DC0B0C",
"I  c #D30609",
"U  c #D31216",
"Y  c #E80B09",
"T  c #F80806",
"R  c #F9130D",
"E  c #E60C12",
"W  c #F90D13",
"Q  c #E71516",
"!  c #F51213",
"~  c #FD1315",
"^  c #FD1811",
"/  c #F8181A",
"(  c #CE1421",
")  c #F51521",
"_  c #E91C22",
"`  c #D22D2E",
"'  c #E92426",
"]  c #FE2836",
"[  c #F02C30",
"{  c #ED2313",
"}  c #864326",
"|  c #975638",
" . c #884D36",
".. c #AD5933",
"X. c #AD623A",
"o. c #9F451B",
"O. c #F6423C",
"+. c #C46234",
"@. c #A92248",
"#. c #B42653",
"$. c #C1275A",
"%. c #F83C47",
"&. c #CA1F40",
"*. c #944A45",
"=. c #975B48",
"-. c #89594D",
";. c #AC594C",
":. c #8C6B53",
">. c #A76349",
",. c #B56947",
"<. c #AA6956",
"1. c #B76958",
"2. c #BB7757",
"3. c #8E7871",
"4. c #B37871",
"5. c #CA4D4A",
"6. c #EF4C4F",
"7. c #C57657",
"8. c #CF684C",
"9. c #D4726F",
"0. c #EB6667",
"q. c #EA7274",
"w. c #F46C6C",
"e. c #FB6854",
"r. c #EDDD30",
"t. c #FFFE37",
"y. c #FFD70B",
"u. c #B38B5D",
"i. c #B0896C",
"p. c #CF855A",
"a. c #CB896A",
"s. c #D58667",
"d. c #CC8776",
"f. c #DF946F",
"g. c #E7946A",
"h. c #E58B73",
"j. c #E89974",
"k. c #F59C75",
"l. c #ED9569",
"z. c #D7AD77",
"x. c #F8A478",
"c. c #FCB379",
"v. c #F1A576",
"b. c #E4875D",
"n. c #031B8E",
"m. c #0B2585",
"M. c #132B89",
"N. c #153489",
"B. c #143699",
"V. c #0D2C94",
"C. c #2F3A8F",
"Z. c #153DAB",
"A. c #173BA5",
"S. c #173FB1",
"D. c #0D3CB3",
"F. c #2E3BAB",
"G. c #0017A9",
"H. c #6A3686",
"J. c #2D4986",
"K. c #1741AD",
"L. c #1442B5",
"P. c #1942B4",
"I. c #1B44BB",
"U. c #2547B8",
"Y. c #2D48AA",
"T. c #3069A1",
"R. c #515C8B",
"E. c #7B7E8F",
"W. c #654CB6",
"Q. c #5068A8",
"!. c #676DB2",
"~. c #1C46C3",
"^. c #1C49C4",
"/. c #1A49C9",
"(. c #1648D6",
"). c #1C54D7",
"_. c #0B44D3",
"`. c #234AC9",
"'. c #214CD2",
"]. c #274CD9",
"[. c #2653D7",
"{. c #3055D2",
"}. c #1D55E7",
"|. c #194DEE",
" X c #2858E5",
".X c #3759E8",
"XX c #2368EA",
"oX c #5574DF",
"OX c #7087B9",
"+X c #6C8CE6",
"@X c #88868A",
"#X c #97969A",
"$X c #918B8F",
"%X c #A7998F",
"&X c #B1A298",
"*X c #8A90AB",
"=X c #A7A7A7",
"-X c #ACACB2",
";X c #B7B7B8",
":X c #B8B0B1",
">X c #99A2A4",
",X c #C88E8B",
"<X c #EB9593",
"1X c #F89699",
"2X c #F38E8C",
"3X c #D2AA97",
"4X c #FBAA84",
"5X c #F9B489",
"6X c #FDB998",
"7X c #EEAB92",
"8X c #D9B8B1",
"9X c #EDB1B0",
"0X c #F59FAB",
"qX c #FEC393",
"wX c #FBC99B",
"eX c #F4CE97",
"rX c #C3C2BD",
"tX c #FACCA6",
"yX c #FCD5AB",
"uX c #F7CFB9",
"iX c #FEE4BF",
"pX c #ABB0CA",
"aX c #94A9EF",
"sX c #94A5DE",
"dX c #C0B9CB",
"fX c #BBC1D3",
"gX c #B7CAF4",
"hX c #C7C5C8",
"jX c #C7CAD5",
"kX c #D7D7D8",
"lX c #D6CFCA",
"zX c #E7DAD8",
"xX c #F6D9D6",
"cX c #F1CDC7",
"vX c #DCE0DF",
"bX c #F9E7D8",
"nX c #F4E4CE",
"mX c #D8DCE6",
"MX c #CAD6F6",
"NX c #D2DAF1",
"BX c #E8DEE8",
"VX c #DAE8F7",
"CX c #DCE5EC",
"ZX c #ECEBEC",
"AX c #E7E5E6",
"SX c #F7EAE6",
"DX c #FDF5E8",
"FX c #E7EBF5",
"GX c #EAF3F9",
"HX c #FDFCF5",
"JX c #F5F6F9",
"KX c #F9F6FB",
"LX c #F4FCFD",
"PX c #abdbc9",
"IX c #F5F3F4",
"UX c #EDF0F3",
/* pixels */
"PXPXPXPXPXPXPXPXPXPXPXPXPXPXPXPXPXPXPXPXPXPXKXKXPXPXSX0Xw.O.[ [ 6.1XKXPXPXPXPXPXPXPXPXPXPXPXPXPXPXPX",
"PXPXPXPXPXPXPXPXPXPXPXPXPXPXPXPXPXPXPXPXPXKXPXPXxX2X%.) W R ! 6.<X<X2XSXPXKXPXPXPXPXPXPXPXPXPXPXPXPX",
"PXPXPXPXPXPXPXPXPXPXPXPXPXPXPXPXPXPXPXPXPXPXIX1X%./ ! ! ~ ! w.GXq.9Xq.0XSXLXKXLXPXPXPXPXPXPXPXPXPXPX",
"PXPXPXPXPXPXPXPXPXPXPXPXPXPXPXPXPXPXPXKXPXbXw.[ / Q E ! / R 3X9X6.0.0.<X9XPXPXPXPXPXPXPXPXPXPXPXPXPX",
"PXPXPXPXPXPXPXPXPXPXPXPXPXPXPXPXPXPXPXPXxX6.' Q E E E Q / W 9.9.<XLXxX9.q.SXPXKXPXPXPXPXPXPXPXPXPXPX",
"PXPXPXPXPXPXPXPXPXPXPXPXPXPXPXPXPXKXPXxX6.' Q P P P P Q Q ! Q d.8XcXzX<X[ uXPXPXPXPXPXPXPXPXPXPXPXPX",
"PXPXPXPXPXPXPXPXPXPXPXPXPXPXPXPXKXPXSX0.' U I I I P P P P Q ) ] ] [ [ ` ` 5.5.9.uXPXPXPXPXPXPXPXPXPX",
"PXPXPXPXPXPXPXPXPXPXPXPXPXPXPXPXPXPX2X' U K K K I K I _ ] ] ' ( A V V B B D V V B 9XPXPXPXPXPXPXPXPX",
"PXPXPXPXPXPXPXPXPXPXPXPXPXPXPXKXcX1X` A Z Z Z Z Z ( [ ` B @ X  .X.| X.> @ V B V m 9XPXPXPXPXPXPXPXPX",
"PXPXPXPXPXPXPXPXPXPXPXPXPXPXPX0X6.` A C N M Z Z ( ` J :   o o o <.7.7.- o $ n V ,XPXPXPXPXPXPXPXPXPX",
"PXPXPXPXPXPXPXPXPXPXPXPXPXPXSX6.` A C m n M m D H | >.5 >.p.a.<.a.4Xj.u.7.*.d.zXPXPXPXPXPXPXPXPXPXPX",
"PXPXPXPXPXPXPXPXPXPXPXPXPXPXSX` A C N m m $ X  .>.,.7.k.3XQ.pX9X5XeXeXpXtXHXPXPXLXPXPXPXPXPXPXPXPXPX",
"PXPXPXPXPXPXPXPXPXPXPXPXPXPXPX9.A J J & @ o X 6 2.g.4XqX*XJ.T.SX7XyX3XQ.kXbXIXPXPXPXPXPXPXPXPXPXPXPX",
"PXPXPXPXPXPXPXPXPXPXPXPXPXPXLXxXh.v.4X=.: ; ; 1 2.x.4XqX>Xt N.NX7XtX5Xj.6XtXyXnXHXPXPXPXPXPXPXPXPXPX",
"PXPXPXPXPXPXPXPXPXPXPXPXPXPXLXbXk.b.8.7. .# = # ..4X5XqX>XT.OXxXv.s.s.4X6XuXyXwXiXPXPXPXPXPXPXPXPXPX",
"PXPXPXPXPXPXPXPXPXPXPXPXPXPXPXcXk.x.8.X.,.5 # 1 <X6X6Xa.O l i.i.>.2.i.j.5XqXwXqXyXPXPXPXPXPXPXPXPXPX",
"PXPXPXPXPXPXPXPXPXPXPXPXPXPXPXxXk.5X9.X.;.>.> >.6X4X4X<.. + - 3 . 0 2.7.g.x.c.c.uXPXPXPXPXPXPXPXPXPX",
"PXPXPXPXPXPXPXPXPXPXLXPXPXPXPXPXuX5X5X1.<.1.s.j.j.k.h.1.9 X . + 3 . 9 2.p.g.p.z.HXLXPXPXPXPXPXPXPXPX",
"PXPXPXPXPXPXPXPXKXPXPXSXxXcX1X2Xw.O.e.0.1.=.a.h.s.s.h.s.s.s.=.. . .   . 4 - l lXPXKXZXmXUXKXKXPXPXPX",
"PXPXPXPXPXPXPXPXFXmXFXBX6.T W T T T T ~ Q ' 5.;.7.7.7.g.l.x.f.>.,.>.5 4 6 -.bXkXlXKXhX;XhXmXKXKXPXPX",
"PXPXPXPXJXPXPXPXPXJXmXCXZXO.W / / / / ~ ~ R ! A H ,.7.7.7.p.j.x.k.g.g.l.c.bXPX3.$XAXKX=X;XhXkXZXPXPX",
"PXPXKXKXJXJXLXPXPXPXPXZXFXxX{ ! ! ! ! ! ! ! ^ ~ Z 8 l >.2.2.p.g.v.x.v.c.nXLXPX3.b @X=Xc #X=XjXUXKXPX",
"KXLXLXLXLXLXLXGXKXKXPXPXAXZX0.Y I Z K L Y Y R / ~ U f N.7 | <.2.a.7XwXSXPXPXkX3.x @Xx O c =X-XjXZXPX",
"CXVXVXGXGXGXGXGXKXKXKXPXIXlX,X;.9.H n M Z K Y Y ! ^ @.}.`.2 * h H w.9XzX9Xd.3.b x -X$Xb b c -XkXJXJX",
"kX-XpXNXNXVXFXJXLXKXKXIXIXhXIXPXPXFXG & & n Z P Y ~ R F.XXW.P 8 2 T T m $ $ 7 -X#X@X#XE.b x $X@X=XZX",
"ZX#X#X-X-XjXAXZXUXZXZXAXZXKXPXKXHXVXj K K I I P ! ) ^ j }.|.$.T j ( W K n C $ v mX#X@X@Xx x c =XAXPX",
"PX;X@X@Xc >XhXkXkXlXhXjXAXPXPXPXPXMXY.G P T T Y T T ^ H.[.*X!.$.H.H L P Z C & @ z -Xx x #X;XAXPXPXPX",
"PXZX;Xc x @X=XhX;Xc c hXZXPXPXPXHXaXD.L.F.j @.&.&.#.W._.u.t.r.XX(.i.F M n % * H 4.rX:XkXPXPXPXPXPXPX",
"PXPXPX=Xx c $X;XvX=X>XjXKXPXPXPXGXoXK.K.L.~./.`.'.). X(.:.y.r.{.(.E.z.4.,X8XSXPXPXPXPXPXPXPXPXPXPXPX",
"PXPXKXKXAXrX=X&X%X#X&XIXPXPXPXPXgX{.K.Z.P.P.I.I./.'.{.P.B.x Q.]. XQ.HXPXPXPXPXPXPXPXPXPXPXPXPXPXPXPX",
"PXPXPXPXPXPXlX:.l 7 4 *XLXPXPXGX+X`.Z.Z.K.P.P.I./.'.'.{.^._.(.'.].aXPXKXPXPXPXPXPXPXPXPXPXPXPXPXPXPX",
"PXPXPXLXPXlX-.l ; 3 M.n.!.FXPXMX.XP.B.Z.K.P.P.P.I.^.^./.'.'.`.`.'.gXPXPXPXPXPXPXPXPXPXPXPXPXPXPXPXPX",
"PXPXPXPXSX:.0 , 3 M.a m.n.S.+XaX].B.N.B.Z.Z.S.P.P.I.~.~.~.^.^.I.`.NXPXPXPXPXPXPXPXPXPXPXPXPXPXPXPXPX",
"PXPXPXPX8X9 S 9 C.a a m.V.V.G.{.U.N.M.B.B.Z.Z.S.P.I.^./.'.'.[.`.oXPXHXLXPXPXPXPXPXPXPXPXPXPXPXPXPXPX",
"PXPXDX,X .< 6 C.V.y a m.m.m.V.U.Y.M.M.B.Z.S.I.`.`.'.[. X X X X XoXgXPXKXPXPXPXPXPXPXPXPXPXPXPXPXPXPX",
"PXDXi.} 6 S 7 Z.a t p a a m.m.V.C.N.a M.B.Z.P.I.^./.'.'.).[. X X X|.aXPXPXPXPXHXPXPXPXPXPXPXPXPXPXPX",
"SXi.< 6 6 S h V.u y y p p p a t r N.d y m.V.A.Z.S.I.~././.'.[. X.X X}.gXPXKXLXPXPXPXPXPXPXPXPXPXPXPX",
"%X0 < 6 < S 3 p r r y y y y u r q q i d i y s N.B.A.Z.P.I.^./.).[..X}.oXPXPXPXSXcXuXnXJXPXPXPXPXPXPX",
"lX4 , < < S - w i d q w q r r q q q w w i e q r p s N.B.A.P.~./.[.[. X[.+XMX:X=.....+.s.xXPXPXPXPXPX",
"PX3.: = = = 0 fXmXUXjX*XR.d e q q e f R.*XjXpXR.i q q y M.A.I./.).[. X[.|.C.7 *.;.X.,...,.bXPXPXPXPX",
"PXPX:X3.3.&XSXPXPXPXPXPXPXFXkXjXjXmXUXPXPXPXPXPXCXpXR.s M.B.S.~./.[. X).`.h 9 *.*.<.d.2.o.3XPXHXPXPX",
"PXPXPXPXPXPXPXPXPXPXPXKXPXPXPXPXPXPXPXPXKXPXPXPXPXPXPXR.a B.Z.L./.'.'.(.Y.6 0 } } | 1.<.S a.PXHXPXPX",
"PXPXPXPXPXPXPXPXPXPXPXPXPXPXPXPXPXPXPXPXPXPXPXPXPXJXPXfXm.M.B.Z.L.~.~.(.k < 6 < S }  .6 ..tXPXPXPXPX",
"PXPXPXPXPXPXPXPXPXPXPXPXPXPXPXPXPXPXPXPXPXPXPXPXPXPXPXPX!.m.N.B.Z.P.~.U.5 , 6 < < 6 1 ..yXPXHXPXPXPX",
"PXPXPXPXPXPXPXPXPXPXPXPXPXPXPXPXPXPXPXPXPXPXPXPXPXPXPXPXFXJ.p M.B.A.L.f < , , , , 1 X.uXPXLXPXPXPXPX",
"PXPXPXPXPXPXPXPXPXPXPXPXPXPXPXPXPXPXPXPXPXPXPXPXPXPXPXKXPXfXs s V.D.f 5 , , , ; < 2.nXPXPXPXPXPXPXPX",
"PXPXPXPXPXPXPXPXPXPXPXPXPXPXPXPXPXPXPXPXPXPXPXPXPXPXPXPXKXPX*Xm.N.g > 1 , ; ; | 3XHXPXPXPXPXPXPXPXPX",
"PXPXPXPXPXPXPXPXPXPXPXPXPXPXPXPXPXPXPXPXPXPXPXPXPXPXPXPXLXPXmXJ.+ ; ; ; = < 3XHXPXPXPXPXPXPXPXPXPXPX",
"PXPXPXPXPXPXPXPXPXPXPXPXPXPXPXPXPXPXPXPXPXPXPXPXPXPXPXPXPXKXPXzX0 : : =  .8XPXPXPXPXPXPXPXPXPXPXPXPX",
"PXPXPXPXPXPXPXPXPXPXPXPXPXPXPXPXPXPXPXPXPXPXPXPXPXPXPXPXPXPXKXPXZX&Xz 3.AXPXLXPXPXPXPXPXPXPXPXPXPXPX"
};
