/* XPM */
static char *aalj0_lit0u[] = {
/* columns rows colors chars-per-pixel */
"50 50 256 2 ",
"   c #390700",
".  c #321209",
"X  c #3C220E",
"o  c #0A1838",
"O  c #352833",
"+  c #331D20",
"@  c #5A0602",
"#  c #551505",
"$  c #4A0E04",
"%  c #750200",
"&  c #71130C",
"*  c #5A280A",
"=  c #4F2816",
"-  c #673817",
";  c #6E310D",
":  c #4D2F32",
">  c #6E342A",
",  c #621B25",
"<  c #724834",
"1  c #624329",
"2  c #021847",
"3  c #04175A",
"4  c #12154D",
"5  c #0E2854",
"6  c #2D2B50",
"7  c #031768",
"8  c #031B77",
"9  c #0C1773",
"0  c #082679",
"q  c #0D2A6E",
"w  c #302C6A",
"e  c #321D52",
"r  c #4C334F",
"t  c #6C344E",
"y  c #4D3670",
"u  c #65246C",
"i  c #62146A",
"p  c #3A435A",
"a  c #324C78",
"s  c #4F4D56",
"d  c #72544E",
"f  c #68596A",
"g  c #5D6977",
"h  c #706E72",
"j  c #655D66",
"k  c #870805",
"l  c #980402",
"z  c #891419",
"x  c #91100F",
"c  c #A60604",
"v  c #B70704",
"b  c #AC141A",
"n  c #873116",
"m  c #B21B2E",
"M  c #8F2D2A",
"N  c #B32E30",
"B  c #982024",
"V  c #C90405",
"C  c #D50807",
"Z  c #DC1106",
"A  c #D11015",
"S  c #E70705",
"D  c #E60C18",
"F  c #F01212",
"G  c #CF152B",
"H  c #D53438",
"J  c #CD2F32",
"K  c #E4242C",
"L  c #DE1E22",
"P  c #914E32",
"I  c #AA5336",
"U  c #B0633E",
"Y  c #82421C",
"T  c #D94437",
"R  c #AC1C54",
"E  c #8D2868",
"W  c #A02857",
"Q  c #90554D",
"!  c #B75849",
"~  c #B3534B",
"^  c #956754",
"/  c #B5694B",
"(  c #AF6D51",
")  c #8F756D",
"_  c #B87767",
"`  c #B16B69",
"'  c #D1514E",
"]  c #E94C49",
"[  c #C4775A",
"{  c #CA6B53",
"}  c #FC624C",
"|  c #D37670",
" . c #F46F6D",
".. c #E62F41",
"X. c #7C8375",
"o. c #AF8A72",
"O. c #A0876A",
"+. c #D58C69",
"@. c #D18C71",
"#. c #E59678",
"$. c #EE8C74",
"%. c #E09865",
"&. c #001B8D",
"*. c #092887",
"=. c #143388",
"-. c #082A95",
";. c #0D339A",
":. c #143298",
">. c #31378F",
",. c #0C38A7",
"<. c #173AA9",
"1. c #0C3BB7",
"2. c #143DB6",
"3. c #0F2EA3",
"4. c #2A36A2",
"5. c #703E8E",
"6. c #4C3AA3",
"7. c #324C8F",
"8. c #0845AE",
"9. c #1A45A8",
"0. c #1744BB",
"q. c #0D41B7",
"w. c #2F4EB3",
"e. c #3F628A",
"r. c #48488E",
"t. c #777A83",
"y. c #747B89",
"u. c #57659E",
"i. c #123EC5",
"p. c #0F41C5",
"a. c #1745C9",
"s. c #1A4AD4",
"d. c #1B50D5",
"f. c #244BC8",
"g. c #2854C8",
"h. c #2556D9",
"j. c #3256CA",
"k. c #3966D0",
"l. c #2958E5",
"z. c #3263E3",
"x. c #586CD0",
"c. c #883182",
"v. c #917D9A",
"b. c #E37A84",
"n. c #7C8A97",
"m. c #6990EA",
"M. c #8F8D90",
"N. c #AD938D",
"B. c #B3A798",
"V. c #8E98AB",
"C. c #A399A5",
"Z. c #98A6AB",
"A. c #AFB0B0",
"S. c #D19B8A",
"D. c #F5938D",
"F. c #CFAD93",
"G. c #F7A486",
"H. c #FDAC94",
"J. c #F7B79A",
"K. c #EFB08D",
"L. c #D0B6AE",
"P. c #F2B5AC",
"I. c #EB99A6",
"U. c #9BD4BC",
"Y. c #A9CDBD",
"T. c #B8C8BA",
"R. c #A5D3BC",
"E. c #A7D9BB",
"W. c #B5D7BB",
"Q. c #A6E0BE",
"!. c #B2E1BD",
"~. c #9DE0BF",
"^. c #C8CABA",
"/. c #D6C8BA",
"(. c #C7D2B7",
"). c #FAC7A6",
"_. c #E8CCB9",
"`. c #FAC6B7",
"'. c #EFD1B2",
"]. c #FFE0BF",
"[. c #9BBADB",
"{. c #BCBDC2",
"}. c #90ACFB",
"|. c #9C9FD4",
" X c #9DDEC5",
".X c #ABCEC2",
"XX c #B8CBC8",
"oX c #A5D4C4",
"OX c #ACD4C4",
"+X c #A5DBC5",
"@X c #ACDCC5",
"#X c #ACD5CA",
"$X c #A5DCCC",
"%X c #ACDCCB",
"&X c #A4D6CB",
"*X c #BBD5C4",
"=X c #B2DBC4",
"-X c #BBD5CB",
";X c #B2DBCB",
":X c #BBDBCE",
">X c #B5D6C7",
",X c #ADCCD6",
"<X c #ACDCD2",
"1X c #A9D9D6",
"2X c #B4D6D1",
"3X c #B2DBD2",
"4X c #BCDCD2",
"5X c #B8D8D9",
"6X c #B5C9D4",
"7X c #9EE5C4",
"8X c #A4E2C5",
"9X c #A9E1C5",
"0X c #A4E1CA",
"qX c #ABE2CC",
"wX c #ACE9CC",
"eX c #B4E2CB",
"rX c #B6E2C7",
"tX c #ACE2D3",
"yX c #A5E2D4",
"uX c #B3E2D3",
"iX c #B8E5D7",
"pX c #B5F0D2",
"aX c #B6D6E5",
"sX c #AFCFF5",
"dX c #B9E5ED",
"fX c #9DC0FA",
"gX c #C5C9C8",
"hX c #D5CAC5",
"jX c #C6D7C6",
"kX c #D7D7C6",
"lX c #C6D8D5",
"zX c #D5D9D7",
"xX c #C9C9D3",
"cX c #FFCBC3",
"vX c #FED9D5",
"bX c #EBD5CA",
"nX c #CEE5D7",
"mX c #E9E4D7",
"MX c #FCE8DA",
"NX c #FDF4DC",
"BX c #EDE5CA",
"VX c #D1D9EC",
"CX c #FADAEC",
"ZX c #C9E7FA",
"AX c #DAFAF9",
"SX c #D2EEEA",
"DX c #E6E9EA",
"FX c #FCEBE3",
"GX c #E7F9EB",
"HX c #F9F6E8",
"JX c #E3FEFD",
"KX c #EBFFFC",
"LX c #E7FBF5",
"PX c #F6FAFA",
"IX c #EFEAF7",
"UX c #D7AAC1",
/* pixels */
"W.Q.8X7X8X@X;X-XXXiXuX X8XrXgXFXD.' H ..] } D.vX`./.KXJX*XW.rX;X:X2X;X;X%X@X8X0X$X%X%X;X;X@X@X@X%X%X",
"=X@X8X7X0X%X;X>X:XOXoX@XAX*XFXS.D.H.' m A A L ' D.vXhXzXGXW.rXY.;X2X;X%X@X+X0XqX%X%X%X%X%X@X@X@X%X%X",
"%X%X0X0XyX$X<X<X2X2XJXKXPXFXI.b.H.| vXb.L F S F L ' I.CXjXrX;X4X%XqXqXqX%X@X$X%X%X%X%X%X%X%X@X@X%X%X",
"2X2X<X$X$X$X<X<XuX%XOXjXL.P.I.| | ` P.D.C F S S Z L J b.bXjXLXOX$X7X0XqXqX%X@X@X%X%X%X%X%X%X;X;X%X%X",
"-X2X2X<XyXyX<X;X%X+XLX(.HX_ | cXMXI.|  .F S F S Z C L K { cXgXiXwX7X X+X%XeX;X%X%X%X%X%X%X%X;X;X%X%X",
"2X2X2X<XyX0X%X;XrXW.kXL.cX~ D.`.P.P. .V F S S C V Z C D K ' vXgXSXpX9X+X@X;X;X;X%X%X$X$X%X%X;X;X%X%X",
"%X%X0X0X0X8X8X=XhX_.| ! ~ N J J H H K K V C Z V C C C C V H | MXmXnXrX=X;X%X;X%X%X%X%X$X%X%X%X;X%X%X",
"8X8X8X8X8X9X8XW./., z k B k x l c c b J H H L C V V C V A A N D.P./.jX*X;X%X%X;X%X%X%X%X%X%X%X%X%X%X",
"@X@X@X@X=X=X@X*X/.# z z & @ & ! I ! P $ @ z J K A V v v v v v H D.cXHX^.Y.@X%X%X%X%X%X%X%X%X%X%X%X%X",
"@X@X=X=X=X=X=X*X^.S., & @ # # _ [ U . X $   k N H b c l l c c c N ~ L./.nXiX%X%X%X%X%X%X%X%X%X%X%X%X",
"%X%X%X%X%X%X;X-X-XT.mX) Q @.o.S.J.@.^ N.N.^ n ! ~ M x % l l l x b N ` MXjX+X+X%X%X;X%X%X%X%X%X%X%X%X",
"%X%X%X%X<X<X2X;X;XLXjXkXFXP.F.'.).P.L.L.f L.K.[ ! / P @ @ % k k l B Q MX-X%XuXtX;X=X%X%X%X%X%X%X%X%X",
"<X<X2X2X2X<X%X;XOXjXT.MXFX`.^ F.).P.HXs s N.).G.$.[ ;   # $ @ M N z _ /.W.qX&X&X;X;X@X@X%X%X<X<X%X%X",
"%X%X;X;X;X%X%X@X*XPXMXbX'.).S.K.).S.mX6 o C.J.H.#./ - = = # P H.$.$.vXNX:XuX<X<X;X=X@X9X0X%X2X2X%X%X",
"%X%X%X%X9X8X8XW.T.NX_.].).).K.+.+.P.bXy.e.Z.`.G.H.I # $ $ I | { $.G.vXHX=X%X%X%X;X;X@X8X0X%X2X2X%X%X",
"%X%X%X8X8X8XQ.W.(.BX'.).).K.#.+._ Q N.C.p O o.).J.#.; # n ! ! { G.S.bX(.=XuX#X3X%X%X%X9X9X%X2X2X%X%X",
"%XuX+XeX+X@X=XW.(.BXF.J.K.+.{ / < . : O + . ^ K.G.J.I ; ! ~ ! [ J.S.BX*X>X3X;XoX<XoXuX;X@X;X#X2X%X%X",
"%XuX%XuX#X:X*XjXHXHXF.o.S.@./ P . = + .   < _ @.G.$.G.+.{ { ' H.H.`.P.bXhXjX*XKX#X<X<X#X;XeX#X3X<X%X",
";X%X3XAXJXSXlXPXPXhXbX< = = $         ^ +.+.[ D.+.+.$. .I ] } } T } D.D.`.vXMX^.-XAX+XqXqXoX3X2X%X%X",
";XOXJXKXlXlXXX{.IXzXbXFXd < = < ( / ( @.#.#.#.[ { { T ] J A L Z Z C V J B ` vXHXnXSX+XqX%XuX%X;X;X%X",
"OXlXSXzXgXA.C.PXGXM.X.^.NXF.@.#.#.G.G.%.+./ +.[ U b v C L D D F F F F A ' vXmXlXGXE.rXeX2XAX#X;X%X%X",
":XLXLXgXA.C.t.A.n.s X.(.NX].J.G.D.G.%.[ +.o.Q M k c K F D D D D D D Z J cXMXDX:XnXY.rXLXLXPXKXKX;X;X",
"XXSXlXA.A.h O j M.h h bX/._.MX`.H.@._ ^ d s e t J D F F Z V A v b b b { vXFXXX5XAXKXGXPXPXIXPXGXKXKX",
"KXGXzXA.h f j M.A.j j ) N.P.`.H.| B & , r y 5.E G F S S V v c l B b.Q S.bXIXlXJXKXLXLXDXIXPXDXDXDXDX",
"GXZ.X.M.h s v.C.M.C.B.> @ % l m m x k W 6.x.i R L S C V c l l z CXhX/.HX/.PXIXPXPXPXPXDXDXzXDXA.A.zX",
"Y.SXA.h j h v.M.M.bX^ # % l A G m B m W r.6.c.R G S C V v b B t CXPXKXT.HXPXCXIXIXDXIXDXgXA.A.C.Z.SX",
">X4X:XnXXXM.h j B.d $ @ x c v b M t Q ) M.f u W G D A G m W u y VXVXR.pXjXzXxXxXxXVXzXgXZ.h M.y.A.;X",
"4X.X>X4X.X-XnXA.^.N.< # & % k M v.y g xXmXM.y 5.W R R R E u >.>.|.KXU.~.=XGXxXt.n.A.^.A.n.g y.6XSXuX",
":X;X>X4X;XOX%X;X%X.XjXHXL.N.` UXv.>.r.aX^.h >.j.w.6.6.6.>.4.<.<.x.JXiXE.U.AX5XZ.Z.mXA.M.t.g Z.2X4X#X",
"Y.eX;X#X%X%X+X$XtXtXuXOXXXzXxXPXu.w.7.u.g 5 9.h.s.a.a.2.q.1.1.2.w.fX1XuXqX#XJXZ.M.N.B.B.A.DXKXJX#X#X",
"uX$X%XqX+XqXqX$X@X@X4X4X>XY.KXaX}.j.9.9.9.9.z.a.a.a.0.8.8.8.1.,.0.m.AX6XlXKXV.r r d d bXxXlX>XOXiX+X",
"<X$XyXyX+XqXqXOX;X=X;X=X;XiXOXaXsXw.0.p.s.h.i.s.a.p.2.8.8.8.<.3.q.g.ZXZXZXu.4 e r : d d hXzXLX@X+X+X",
"2X1XiX X8XE.eXR.=XeXR.@XuXoX>X5XdXw.<.0.p.s.p.a.i.0.q.1.,.,.;.-.,.0.}.m.<.8 8 7 w 6 : < ^ HXXX%X@XuX",
"4X2X+X0X8X9X@XiX%X#XeX9X@X%XKXJXsXk.g.h.d.s.p.p.a.q.1.2.<.;.*.*.;.9.j.&.-.-.*.0 0 r.t > < F.^.4X;XR.",
";X;X@X+XwX0X+X$X1X1XtXR.rXW.JXsXsXx.g.h.l.l.l.h.s.a.a.2.2.<.:.*.0 w.w.&.-.*.8 8 7 w y t > < B.GX>XiX",
"OXrX=XrXE.qX@XiX5XaXAXOXW.lXsX}.w.g.h.l.l.s.s.a.0.0.f.0.<.;.*.8 0 =.*.8 0 8 0 0 *.7 y t > - < o.GXjX",
"uXU.@X@XeXR.(.T.gXxX-XKXKXaXsXw.g.h.h.l.s.a.f.f.0.<.3.3.-.&.0 =.=.7 8 9 9 9 0 7 8 7 w : > Y ; - N.HX",
"+X0XpXR.W.(.NXMXvXhXHXlX,XsXx.g.z.l.s.a.s.a.2.;.:.:.=.*.8 0 q q 7 7 7 7 3 3 3 7 7 3 4 r < ; ; - 1 N.",
" XwXU.eXkXbXo.( P ^ d {.ZXm.j.h.d.d.s.p.1.,.;.=.q q 3 3 3 5 2 o 3 7 7 3 4 4 o 2 q 2 o O < ; ; - : ^.",
"8XU.iXY.NX) Q ( / U P : w w.a.l.h.s.s.p.,.-.7 3 2 2 e.[.sXV.a 6 5 2 2 5 6 g V.,XAXdX6Xs X = * X X.jX",
"E.rXLXT.L.Q ( @./ P P t w 7.f.l.d.a.p.0.;.0 q e.[.ZXaX,X,XVX2XAXZXaXaXZXAXXX4X;X1X1X5XDXB.) ) A.-X%X",
"E.rXKXhXN.- ( / P n n > f r.<.a.s.i.0.,.*.q e.sX,XaX,X5XnXSX;X;XoX3X1X#XlX4XSX;XoX;X2XlXgXlX-X4X%X%X",
"qX@XXXhX_.^ Y Y P n ; > r y w.f.i.2.2.;.0 3 sXaXAXiX#X2X2X;X;X@X@XeXuX&X<XOXnXE.rX9X@X>X-X4X3X@X%X;X",
"$XoXnXGXkX'.P ; n n ; > > r 7.<.w.3.-.=.q u.,X5XiX#X2X3X2XoXrXrXW.E.$XtX3X.X:X=XrXE.@X@X;XR.+X0X%X;X",
"tXtX#X-XPX(.'.^ * > * * - : w >.:.:.*.7 a AXdX%XOX#X3X<XiX<X%XR.E.@X<X1X1X1XiX@X@XQ.wXoXeX9XwXQ.%X;X",
"$XtX%X#X:XW.(.MXO.- * - * : s e >.7 q q sXaXAX@XrXeX3XoXiX$X+X@XrXqXtX1X<X5X3XOXE.8XqX+X%X@X9XR.@X%X",
"E.E.uXiXoX3XuXY.PXF.P * * - = : 4 a 5 n.aXJXR.!.E.E.qX<XtX<XqXeXrXR.$X$X<X2X;XrXQ.~.yXtX5X1X;XeX%X%X",
"E.eXoX<XiX&XyXyX@XjXNXF.> * * = 6 o p ZX5XAXrXW.rXE.@XtX$X$XqX@X@X@XqXtX&X;X;X@X9X8X$X$X1X5X2X@X%X%X",
"%X%X%X%X%X%X0X$X@XOXjX^.L.d = X + s zX-XJX3XOX@X=X@X%X%X%X%X%X%X%X%X%X%X%X%X%X@X@X%X%X%X<X%X%X%X%X%X",
"%X%X%X%X%X%X%XqX$XiXOXLXkXbX) d N.mXjXLXY.uXoXiX;X;X%X%X%X%X%X%X%X%X%X%X%X%X%X%X%X%X%X%X%X%X%X%X%X%X"
};
