/* XPM */
static char *aet3j_yach1[] = {
/* columns rows colors chars-per-pixel */
"50 50 219 2 ",
"   c #000006",
".  c #1C0200",
"X  c #230A05",
"o  c #240E08",
"O  c #2D1209",
"+  c #37180D",
"@  c #361A13",
"#  c #3A1D15",
"$  c #3B2117",
"%  c #1C1F2D",
"&  c #1F2125",
"*  c #1B263A",
"=  c #21202A",
"-  c #36282A",
";  c #262B3D",
":  c #382E39",
">  c #313132",
",  c #401D12",
"<  c #43241B",
"1  c #47271C",
"2  c #5A2818",
"3  c #6C2C1D",
"4  c #672515",
"5  c #79331E",
"6  c #4B2B24",
"7  c #482C2D",
"8  c #522E24",
"9  c #53312B",
"0  c #59362B",
"q  c #4C3739",
"w  c #563631",
"e  c #5B3B33",
"r  c #5C3839",
"t  c #48302A",
"y  c #692F22",
"u  c #743323",
"i  c #7B3828",
"p  c #673C38",
"a  c #623024",
"s  c #644336",
"d  c #67463E",
"f  c #7B4936",
"g  c #2B3248",
"h  c #353848",
"j  c #303A51",
"k  c #2C2E42",
"l  c #453741",
"z  c #563E44",
"x  c #344360",
"c  c #584849",
"v  c #4C4253",
"b  c #654444",
"n  c #694741",
"m  c #6B4A48",
"M  c #724D44",
"N  c #7C4844",
"B  c #71504D",
"V  c #77595A",
"C  c #675253",
"Z  c #494E61",
"A  c #4C5369",
"S  c #535A6A",
"D  c #555D70",
"F  c #5A606F",
"G  c #5D6578",
"H  c #707071",
"J  c #756B6F",
"K  c #843C24",
"L  c #833E2D",
"P  c #893E28",
"I  c #803F30",
"U  c #86442A",
"Y  c #8C432C",
"T  c #894429",
"R  c #92442C",
"E  c #92492E",
"W  c #97442A",
"Q  c #834234",
"!  c #8C4533",
"~  c #8D4A36",
"^  c #82453B",
"/  c #8B4739",
"(  c #8D4A3A",
")  c #834B3E",
"_  c #914633",
"`  c #934C34",
"'  c #9A4E35",
"]  c #934C3B",
"[  c #984E3A",
"{  c #8C5139",
"}  c #95513C",
"|  c #9A533B",
" . c #985339",
".. c #A3583F",
"X. c #8B4C43",
"o. c #824D48",
"O. c #954E41",
"+. c #984E40",
"@. c #8C5444",
"#. c #8D534C",
"$. c #945343",
"%. c #9A5342",
"&. c #9C5B44",
"*. c #965448",
"=. c #9C564B",
"-. c #9D5B4B",
";. c #965847",
":. c #8B5A52",
">. c #885855",
",. c #9D5B52",
"<. c #9B5D57",
"1. c #A15840",
"2. c #A15B4E",
"3. c #A15E57",
"4. c #9E604A",
"5. c #896657",
"6. c #94645B",
"7. c #9C6B5B",
"8. c #986259",
"9. c #97755A",
"0. c #86684D",
"q. c #A0614E",
"w. c #A4625C",
"e. c #A9655D",
"r. c #A26055",
"t. c #A5715F",
"y. c #8D6767",
"u. c #946968",
"i. c #9A7766",
"p. c #906C72",
"a. c #9C7779",
"s. c #9A797B",
"d. c #887E7C",
"f. c #AB6C6B",
"g. c #A76663",
"h. c #A37363",
"j. c #AA7C6C",
"k. c #A47867",
"l. c #AE7272",
"z. c #A77872",
"x. c #B37877",
"c. c #AA8776",
"v. c #B3857C",
"b. c #AC9679",
"n. c #B0977D",
"m. c #687389",
"M. c #6F7D90",
"N. c #A07F80",
"B. c #B67F81",
"V. c #9C8A83",
"C. c #9C8887",
"Z. c #9A9B9C",
"A. c #818184",
"S. c #A78787",
"D. c #BC8A8D",
"F. c #B88687",
"G. c #A69589",
"H. c #BE8D91",
"J. c #A49897",
"K. c #B0948E",
"L. c #AEA099",
"P. c #BFA29A",
"I. c #B8AA95",
"U. c #8795AC",
"Y. c #9195A6",
"T. c #A79CA6",
"R. c #B59CA5",
"E. c #B2A5A8",
"W. c #ACA8B8",
"Q. c #B5ABB9",
"!. c #BBB3B0",
"~. c #C3999A",
"^. c #C0AE92",
"/. c #C2B094",
"(. c #CBB2AC",
"). c #CAB4AB",
"_. c #C8B9B6",
"`. c #C7AFA7",
"'. c #D5C3BB",
"]. c #CCC3BF",
"[. c #B7AEC3",
"{. c #BDBBCB",
"}. c #AFB7CF",
"|. c #B5C1D7",
" X c #BCCCE3",
".X c #CDC9C7",
"XX c #D9CDC6",
"oX c #D9D2CE",
"OX c #C5C5D9",
"+X c #D9D5D4",
"@X c #E2DAD7",
"#X c #E4DCD9",
"$X c #EAE0DF",
"%X c #CBD4ED",
"&X c #C7D3E8",
"*X c #D0DEF3",
"=X c #D3DDFA",
"-X c #D1D5F7",
";X c #D5E2F5",
":X c #D5E3FC",
">X c #D9E4FC",
",X c #DCEAFE",
"<X c #DAE8F7",
"1X c #DDF1FF",
"2X c #DFE2E8",
"3X c #E1E1E2",
"4X c #EBE4E2",
"5X c #EDE8E7",
"6X c #EBEAE9",
"7X c #F0EDEB",
"8X c #F3F0EF",
"9X c #E1EEFF",
"0X c #E7EDF7",
"qX c #E3F2FF",
"wX c #E5F9FF",
"eX c #E9FDFF",
"rX c #F5F3F3",
"tX c #abdbc9",
"yX c #FBF9F7",
/* pixels */
"tXtXtXtXtXtXtXtXtXtXtXtXtXtXtXtXtXtXtXtXtXtXtXtXtXtXtXtXtXtXtXtXtXtXtXtXtXtXtXtXtXtXtXtXtXtXtXtXtXtX",
"tXtXtXtXtXtXtXtXtXtXtXtXtXtXtXtXtXtXtXtXtXtXtXtXtXtXtXtXtXtXtXtXtXtXtXtXtXtXtXtXtXtXtXtXtXtXtXtXtXtX",
"tXtXtXtXtXtXtXtXtXtXtXtXtXtXtXtXtXtXtXtXtXtXtXtXtXtXtXtXtXtXtXtXtXtXtXtXtXtXtXtXtXtXtXtXtXtXtXtXtXtX",
"tXtXtXtXtXtXtXtXtXtXtXtXtXtXtXtXtXtXtXtXtXtXtXtXtXtXtXtXtXtXtXtXtXtXtXtXtXtXtXtXtXtXtXtXtXtXtXtXtXtX",
"tXtXtXtXtXtXtXtXtXtXtXtXtXtXtXtXtXtXtXtXtXtXtXtXtXtXtXtXtXtXtXtXtXtXtXtXtXtXtXtXtXtXtXtXtXtXtXtXtXtX",
"tXtXtXtXtXtXtXtXtXtXtXtXtXtXtXtXtXtXtXtXtXtXtXtXtXtXtXtXtXtXtXtXtXtXtXtXtXtXtXtXtXtXtXtXtXtXtXtXtXtX",
"tXtXtXtXtXtXtXtXtXtXtXtXtXtXtXtXtXtXtXtXtXtXtXtXtXtXtXtXtXtXtXtXtXtXtXtXtXtXtXtXtXtXtXtXtXtXtXtXtXtX",
"tXtXtXtXtXtXtXtXtXtXtXtXtXtXtXtXtXtXtXtXtXtXtXyX5X#X$X5XrXtXtXtXtXtXtXtXtXtXtXtXtXtXtXtXtXtXtXtXtXtX",
"tXtXtXtXtXtXtXtXtXtXtXtXtXtXtXtXtXtXtXtXtX7X(.D.F.D.D.H.~._.4XtXtXtXtXtXtXtXtXtXtXtXtXtXtXtXtXtXtXtX",
"tXtXtXtXtXtXtXtXtXtXtXtXtXtXtXtXtXrXA.S T.z.e.f.x.D.H.D.D.x.v.(.yXyXtXtXtXtXtXtXtXtXtXtXtXtXtXtXtXtX",
"tXtXtXtXtXtXtXtXtXtXtXtXtXtXtXtX3X> = = * J r.e.l.F.F.B.x.l.f.g.C.F H 3XtXtXtXtXtXtXtXtXtXtXtXtXtXtX",
"tXtXtXtXtXtXtXtXtXtXtXtXtXtXtXtX.XZ.S.M > x V w.l.l.l.l.f.f.w.>.A h H Z.tXtXtXtXtXtXtXtXtXtXtXtXtXtX",
"tXtXtXtXtXtXtXtXtXtXtXtXtXtXtXyXtXXX) u a k v <.f.f.f.g.g.g.,.v j d _.tXtXtXtXtXtXtXtXtXtXtXtXtXtXtX",
"tXtXtXtXtXtXtXtXtXtXtXtXtXtXtXtX@X@.i i u q j #.f.f.f.e.2.3.o.k l f 6.7XtXtXtXtXtXtXtXtXtXtXtXtXtXtX",
"tXtXtXtXtXtXtXtXtXtXtXtXtXtXtXrXh.Q Q L I p j b g.g.g.g.3.2.r g p ~ @.P.tXtXtXtXtXtXtXtXtXtXtXtXtXtX",
"tXtXtXtXtXtXtXtXtXtXtXtXtXtXtXF.( / ! ! ^ ^ h l <.w.w.w.3.$.q h f ~ $.7.4XtXtXtXtXtXtXtXtXtXtXtXtXtX",
"tXtXtXtXtXtXtXtXtXtXtXtXtXtX`.@.( ! ! ( X.I 7 : #.,.,.3.,.^ k z ! ( %.$.P.tXtXtXtXtXtXtXtXtXtXtXtXtX",
"tXtXtXtXtXtXtXtXtXtXtXtXtXXX,.O.( ! ( ( Q y.C = N -.,.<.=.p ; a Y ` [ %.7.6XtXtXtXtXtXtXtXtXtXtXtXtX",
"tXtXtXtXtXtXtXtXtXtXtXtX@X7.$.( ( / / X.Q.,X,XS 7 *.,.,.X.- Z J.#.Y [ %.&.).tXtXtXtXtXtXtXtXtXtXtXtX",
"tXtXtXtXtXtXtXtXtXtXtX4Xk.$.] ( / ( Q W.wX<XqX;XZ r =.o.: D %XwX%X:._ %.&.k.rXtXtXtXtXtXtXtXtXtXtXtX",
"tXtXtXtXtXtXtXtXtXtXrXc.;.] ] ! ( ( :.=X,X,X;X*X&Xq ] w M.1X,X*X1XE.Y } &.&.).tXtXtXtXtXtXtXtXtXtXtX",
"tXtXtXtXtXtXtXtXtXtXP.$.$.] ] ( ] / a.,X>X9X}.U. Xa.( N %X,X:X:X:XOX~ [ | &.j.8XtXtXtXtXtXtXtXtXtXtX",
"tXtXtXtXtXtXtXtXtX4X7.$.] ] ] ] $.! C.,X>X,XG Z U.S.! u.:XtX0X}.|.OX} `  .-.-.`.tXtXtXtXtXtXtXtXtXtX",
"tXtXtXtXtXtXtXtXtX).@.( ! ! ] ] $./ s.,X>XqXA   U.s.! p.9XtX3XD m.W.$.`  .%.&.k.8XtXtXtXtXtXtXtXtXtX",
"tXtXtXtXtXtXtXtXtXS.) ! Y ! _ ] ] ! y.:X=X9X}.S |.#._ y.,XtX3X% ; T.~ [  . .&.q.'.tXtXtXtXtXtXtXtXtX",
"tXtXtXtXtXtXtXtXrXi.! P Y ! ! _ 8.z.Q {.9X=X,XeXJ._ %.:.%X0X,XG m.N._ | [  .| &.D.tXtXtXtXtXtXtXtXtX",
"tXtXtXtXtXtXtXtX8Xi.! Y Y ! ` P [.OXK :.OX:X;XT.) $.%.Q T.1X>X1X{.( ] [ [ ` ' | j.rXtXtXtXtXtXtXtXtX",
"tXtXtXtXtXtXtXtXyXc.~ ! ! ` Y :.=X=X6.K f y.5./ $.$.+.O.) T.&XQ.@.! R.;.' ` `  .t.5XtXtXtXtXtXtXtXtX",
"tXtXtXtXtXtXtXtXtX(.$.` _ ] L W.>X,XT.4 u i Y [ %.%.%.%.} ! ) ! K a.qXu.R  .`  .k.7XtXtXtXtXtXtXtXtX",
"tXtXtXtXtXtXtXtXtXrXj.~ ! *.X.[.>X{.y.3 4 4 3 5 K Y _ _ Y K K 5 o.%X9XS.T |  .| v.yXtXtXtXtXtXtXtXtX",
"tXtXtXtXtXtXtXtXtXtX#X8.` ` _ *.u.#./ +.O.X./ Q i u u u y 3 y 4 p.-XqXQ.P }  .-.(.tXtXtXtXtXtXtXtXtX",
"tXtXtXtXtXtXtXtXtXtXtXoX7.` ` R Y ` [ %.2.2.=.%.%.%.+.+.%.%.%.%.] 8.R.S.R [ | j.7XtXtXtXtXtXtXtXtXtX",
"tXtXtXtXtXtXtXtXtXtXtXtX4Xv.} ~  .` ` _ ` ` ` _ _ ` ` [ [ | %.%.| W W W ' | h.@XtXtXtXtXtXtXtXtXtXtX",
"tXtXtXtXtXtXtXtXtXtXtXtXtXtXXXc.{ Y E E E E E E E E ` ` ` ` ` ' '  ...1.-.c.#XtXtXtXtXtXtXtXtXtXtXtX",
"tXtXtXtXtXtXtXtXtXtXtXtXtXtXtXtX5XK.f U { U U T T T T K K R ` ' | ..&.j.'.rXtXtXtXtXtXtXtXtXtXtXtXtX",
"tXtXtXtXtXtXtXtXtXtXtXtXtXtXtX.Xd.c - 1 5.n.G.n.n.n.c.h.9.f 2 2 2 2 1 J 6XtXyXtXtXtXtXtXtXtXtXtXtXtX",
"tXtXtXtXtXtXtXtXtXtXtXtXtXtXJ.t @ O O O + f n.I.I./.^./.i.$ o X X o @ 1 V 5XtXtXtXtXtXtXtXtXtXtXtXtX",
"tXtXtXtXtXtXtXtXtXtXtXtXtX.Xw w w 6 < # # + 8 9.b.c.b.0., + @ # < 9 m b e L.tXtXtXtXtXtXtXtXtXtXtXtX",
"tXtXtXtXtXtXtXtXtXtXtXtXtXG.0 m V m e 9 6 < # + e XXs O $ < 1 9 e b V B d V.tXtXtXtXtXtXtXtXtXtXtXtX",
"tXtXtXtXtXtXtXtXtXtXtXtXtXV.s M B m n d e 6 < X c tXJ . $ 1 9 e s n M M s L.tXtXtXtXtXtXtXtXtXtXtXtX",
"tXtXtXtXtXtXtXtXtXtXtXtXtX].e 9 8 8 8 1 < # # q +XtX6XC $ < < 1 1 8 0 d V.rXtXtXtXtXtXtXtXtXtXtXtXtX",
"tXtXtXtXtXtXtXtXtXtXtXtXtXtX+XE.J.C.V.G.J.!.+XyXtXyXtXtX3X+X.X_.!._.oX7XtXtXtXtXtXtXtXtXtXtXtXtXtXtX",
"tXtXtXtXtXtXtXtXtXtXtXtXtXtXtXtXtXtXtXtXtXtXtXtXtXtXtXtXtXtXtXtXtXtXtXtXtXtXtXtXtXtXtXtXtXtXtXtXtXtX",
"tXtXtXtXtXtXtXtXtXtXtXtXtXtXtXtXtXyXyXyXyXtXtXtXtXtXtXtXtXtXtXtXtXtXtXtXtXtXtXtXtXtXtXtXtXtXtXtXtXtX",
"tXtXtXtXtXtXtXtXtXtXtXtXtXtXtXtXtXtXtXtXtXtXtXtXtXtXtXtXtXtXtXtXtXtXtXtXtXtXtXtXtXtXtXtXtXtXtXtXtXtX",
"tXtXtXtXtXtXtXtXtXtXtXtXtXtXtXtXtXtXtXtXtXtXtXtXtXtXtXtXtXtXtXtXtXtXtXtXtXtXtXtXtXtXtXtXtXtXtXtXtXtX",
"tXtXtXtXtXtXtXtXtXtXtXtXtXtXtXtXtXtXtXtXtXtXtXtXtXtXtXtXtXtXtXtXtXtXtXtXtXtXtXtXtXtXtXtXtXtXtXtXtXtX",
"tXtXtXtXtXtXtXtXtXtXtXtXtXtXtXtXtXtXtXtXtXtXtXtXtXtXtXtXtXtXtXtXtXtXtXtXtXtXtXtXtXtXtXtXtXtXtXtXtXtX",
"tXtXtXtXtXtXtXtXtXtXtXtXtXtXtXtXtXtXtXtXtXtXtXtXtXtXtXtXtXtXtXtXtXtXtXtXtXtXtXtXtXtXtXtXtXtXtXtXtXtX",
"tXtXtXtXtXtXtXtXtXtXtXtXtXtXtXtXtXtXtXtXtXtXtXtXtXtXtXtXtXtXtXtXtXtXtXtXtXtXtXtXtXtXtXtXtXtXtXtXtXtX"
};
